<svg viewBox="0 0 330 200" xmlns="http://www.w3.org/2000/svg"><g><g><g><g><g><line x1="50" y1="177" x2="45" y2="177" style="visibility: inherit;" fill="rgb(0, 0, 0)" stroke="rgb(204, 204, 204)" stroke-width="1px"></line><line x1="50" y1="159.3" x2="45" y2="159.3" style="visibility: inherit;" fill="rgb(0, 0, 0)" stroke="rgb(204, 204, 204)" stroke-width="1px"></line><line x1="50" y1="141.6" x2="45" y2="141.6" style="visibility: inherit;" fill="rgb(0, 0, 0)" stroke="rgb(204, 204, 204)" stroke-width="1px"></line><line x1="50" y1="123.89999999999999" x2="45" y2="123.89999999999999" style="visibility: inherit;" fill="rgb(0, 0, 0)" stroke="rgb(204, 204, 204)" stroke-width="1px"></line><line x1="50" y1="106.2" x2="45" y2="106.2" style="visibility: inherit;" fill="rgb(0, 0, 0)" stroke="rgb(204, 204, 204)" stroke-width="1px"></line><line x1="50" y1="88.5" x2="45" y2="88.5" style="visibility: inherit;" fill="rgb(0, 0, 0)" stroke="rgb(204, 204, 204)" stroke-width="1px"></line><line x1="50" y1="70.8" x2="45" y2="70.8" style="visibility: inherit;" fill="rgb(0, 0, 0)" stroke="rgb(204, 204, 204)" stroke-width="1px"></line><line x1="50" y1="53.09999999999999" x2="45" y2="53.09999999999999" style="visibility: inherit;" fill="rgb(0, 0, 0)" stroke="rgb(204, 204, 204)" stroke-width="1px"></line><line x1="50" y1="35.39999999999999" x2="45" y2="35.39999999999999" style="visibility: inherit;" fill="rgb(0, 0, 0)" stroke="rgb(204, 204, 204)" stroke-width="1px"></line><line x1="50" y1="17.699999999999996" x2="45" y2="17.699999999999996" style="visibility: inherit;" fill="rgb(0, 0, 0)" stroke="rgb(204, 204, 204)" stroke-width="1px"></line><line x1="50" y1="0" x2="45" y2="0" style="visibility: inherit;" fill="rgb(0, 0, 0)" stroke="rgb(204, 204, 204)" stroke-width="1px"></line></g><g transform="translate(40, 0)"><text x="0" y="177" dx="0em" dy="0.3em" style="text-anchor: end; visibility: hidden; font-family: Roboto, sans-serif; font-size: 12px; font-weight: 200;" fill="rgb(33, 33, 33)" stroke="none" stroke-width="1px">0.05</text><text x="0" y="159.3" dx="0em" dy="0.3em" style="text-anchor: end; visibility: inherit; font-family: Roboto, sans-serif; font-size: 12px; font-weight: 200;" fill="rgb(33, 33, 33)" stroke="none" stroke-width="1px">0.1</text><text x="0" y="141.6" dx="0em" dy="0.3em" style="text-anchor: end; visibility: hidden; font-family: Roboto, sans-serif; font-size: 12px; font-weight: 200;" fill="rgb(33, 33, 33)" stroke="none" stroke-width="1px">0.15</text><text x="0" y="123.89999999999999" dx="0em" dy="0.3em" style="text-anchor: end; visibility: inherit; font-family: Roboto, sans-serif; font-size: 12px; font-weight: 200;" fill="rgb(33, 33, 33)" stroke="none" stroke-width="1px">0.2</text><text x="0" y="106.2" dx="0em" dy="0.3em" style="text-anchor: end; visibility: hidden; font-family: Roboto, sans-serif; font-size: 12px; font-weight: 200;" fill="rgb(33, 33, 33)" stroke="none" stroke-width="1px">0.25</text><text x="0" y="88.5" dx="0em" dy="0.3em" style="text-anchor: end; visibility: inherit; font-family: Roboto, sans-serif; font-size: 12px; font-weight: 200;" fill="rgb(33, 33, 33)" stroke="none" stroke-width="1px">0.3</text><text x="0" y="70.8" dx="0em" dy="0.3em" style="text-anchor: end; visibility: hidden; font-family: Roboto, sans-serif; font-size: 12px; font-weight: 200;" fill="rgb(33, 33, 33)" stroke="none" stroke-width="1px">0.35</text><text x="0" y="53.09999999999999" dx="0em" dy="0.3em" style="text-anchor: end; visibility: inherit; font-family: Roboto, sans-serif; font-size: 12px; font-weight: 200;" fill="rgb(33, 33, 33)" stroke="none" stroke-width="1px">0.4</text><text x="0" y="35.39999999999999" dx="0em" dy="0.3em" style="text-anchor: end; visibility: hidden; font-family: Roboto, sans-serif; font-size: 12px; font-weight: 200;" fill="rgb(33, 33, 33)" stroke="none" stroke-width="1px">0.45</text><text x="0" y="17.699999999999996" dx="0em" dy="0.3em" style="text-anchor: end; visibility: inherit; font-family: Roboto, sans-serif; font-size: 12px; font-weight: 200;" fill="rgb(33, 33, 33)" stroke="none" stroke-width="1px">0.5</text><text x="0" y="0" dx="0em" dy="0.3em" style="text-anchor: end; visibility: hidden; font-family: Roboto, sans-serif; font-size: 12px; font-weight: 200;" fill="rgb(33, 33, 33)" stroke="none" stroke-width="1px">0.55</text></g><line x1="50" y1="0" x2="50" y2="177" fill="rgb(0, 0, 0)" stroke="rgb(204, 204, 204)" stroke-width="1px"></line></g></g><g transform="translate(50, 0)" clip-path="url(#clip_0)"><clipPath id="clip_0"><rect width="280" height="177"></rect></clipPath><g><g><g><line x1="0" y1="0" x2="0" y2="177" fill="rgb(0, 0, 0)" stroke="rgb(66, 66, 66)" stroke-width="1px" opacity="0.25"></line><line x1="28" y1="0" x2="28" y2="177" fill="rgb(0, 0, 0)" stroke="rgb(66, 66, 66)" stroke-width="1px" opacity="0.25"></line><line x1="56" y1="0" x2="56" y2="177" fill="rgb(0, 0, 0)" stroke="rgb(66, 66, 66)" stroke-width="1px" opacity="0.25"></line><line x1="84" y1="0" x2="84" y2="177" fill="rgb(0, 0, 0)" stroke="rgb(66, 66, 66)" stroke-width="1px" opacity="0.25"></line><line x1="112" y1="0" x2="112" y2="177" fill="rgb(0, 0, 0)" stroke="rgb(66, 66, 66)" stroke-width="1px" opacity="0.25"></line><line x1="140" y1="0" x2="140" y2="177" fill="rgb(0, 0, 0)" stroke="rgb(66, 66, 66)" stroke-width="1px" opacity="0.25"></line><line x1="168" y1="0" x2="168" y2="177" fill="rgb(0, 0, 0)" stroke="rgb(66, 66, 66)" stroke-width="1px" opacity="0.25"></line><line x1="196" y1="0" x2="196" y2="177" fill="rgb(0, 0, 0)" stroke="rgb(66, 66, 66)" stroke-width="1px" opacity="0.25"></line><line x1="224" y1="0" x2="224" y2="177" fill="rgb(0, 0, 0)" stroke="rgb(66, 66, 66)" stroke-width="1px" opacity="0.25"></line><line x1="252" y1="0" x2="252" y2="177" fill="rgb(0, 0, 0)" stroke="rgb(66, 66, 66)" stroke-width="1px" opacity="0.25"></line><line x1="280" y1="0" x2="280" y2="177" fill="rgb(0, 0, 0)" stroke="rgb(66, 66, 66)" stroke-width="1px" opacity="0.25"></line></g><g><line x1="0" y1="177" x2="280" y2="177" fill="rgb(0, 0, 0)" stroke="rgb(66, 66, 66)" stroke-width="1px" opacity="0.25"></line><line x1="0" y1="159.3" x2="280" y2="159.3" fill="rgb(0, 0, 0)" stroke="rgb(66, 66, 66)" stroke-width="1px" opacity="0.25"></line><line x1="0" y1="141.6" x2="280" y2="141.6" fill="rgb(0, 0, 0)" stroke="rgb(66, 66, 66)" stroke-width="1px" opacity="0.25"></line><line x1="0" y1="123.89999999999999" x2="280" y2="123.89999999999999" fill="rgb(0, 0, 0)" stroke="rgb(66, 66, 66)" stroke-width="1px" opacity="0.25"></line><line x1="0" y1="106.2" x2="280" y2="106.2" fill="rgb(0, 0, 0)" stroke="rgb(66, 66, 66)" stroke-width="1px" opacity="0.25"></line><line x1="0" y1="88.5" x2="280" y2="88.5" fill="rgb(0, 0, 0)" stroke="rgb(66, 66, 66)" stroke-width="1px" opacity="0.25"></line><line x1="0" y1="70.8" x2="280" y2="70.8" fill="rgb(0, 0, 0)" stroke="rgb(66, 66, 66)" stroke-width="1px" opacity="0.25"></line><line x1="0" y1="53.09999999999999" x2="280" y2="53.09999999999999" fill="rgb(0, 0, 0)" stroke="rgb(66, 66, 66)" stroke-width="1px" opacity="0.25"></line><line x1="0" y1="35.39999999999999" x2="280" y2="35.39999999999999" fill="rgb(0, 0, 0)" stroke="rgb(66, 66, 66)" stroke-width="1px" opacity="0.25"></line><line x1="0" y1="17.699999999999996" x2="280" y2="17.699999999999996" fill="rgb(0, 0, 0)" stroke="rgb(66, 66, 66)" stroke-width="1px" opacity="0.25"></line><line x1="0" y1="0" x2="280" y2="0" fill="rgb(0, 0, 0)" stroke="rgb(66, 66, 66)" stroke-width="1px" opacity="0.25"></line></g></g></g><g><g><line x1="0" y1="194.70000000000002" x2="280" y2="194.70000000000002" fill="rgb(0, 0, 0)" stroke="rgb(153, 153, 153)" stroke-width="1.5px"></line></g></g><g><g><line x1="28" y1="0" x2="28" y2="177" fill="rgb(0, 0, 0)" stroke="rgb(153, 153, 153)" stroke-width="1.5px"></line></g></g><g><g><g><g><g><path stroke="rgb(255, 112, 67)" stroke-width="2px" d="M38.7744,-1.9683363971658003L38.961999999999996,0.2988519778826447L39.264399999999995,2.7775726326304935L39.505199999999995,5.333068908479393L39.5388,7.598492559485102L39.7068,9.84454149730677L39.7376,11.83789096815081L39.8356,13.728533637773362L40.0904,15.800130764718535L40.118399999999994,17.638017696586527L40.779199999999996,20.362258218993954L41.5296,24.006337744495177L42.252,28.396960344809955L42.3808,32.41179652774389L42.5236,36.12605662645022L42.56,39.39767606091252L42.7336,42.52279794545177L42.826,45.38173005385791L43.013600000000004,48.17438383886857L43.2712,51.03014225638401L43.8676,54.52299339721083L44.3296,58.33518430914179L44.4248,61.79257708148616L44.4612,64.8423264186779L44.7468,67.9683689823101L44.7916,70.74628318439134L44.9484,73.41599826735016L45.1864,76.13185097172195L45.43,78.89719481996512L45.581199999999995,81.54642344185294L45.735200000000006,84.10014348522658L45.8332,86.47505745991909L46.3932,89.48986485008271L46.477199999999996,92.23908612065013L46.844,95.24509866714267L46.900000000000006,97.93857805144306L47.18,100.74718254036465L47.373200000000004,103.50600859663959L47.5748,106.23626985070628L47.5888,108.61928596967098L47.7512,110.95744586188556L48.3084,113.93568185223441L48.8208,117.38991352580582L48.8992,120.50917103612409L49.120400000000004,123.58454715722092L49.403200000000005,126.72792570000685L49.635600000000004,129.84339978212762L49.644000000000005,132.54961139273598L49.7168,135.01295248502782L49.8232,137.3242259333047L49.8988,139.45115475653319L50.3608,142.08319715246773L50.7416,144.4246831745165L51.2148,146.44772686775897L51.934400000000004,148.19563644717L51.9512,149.70583019571936L52.1304,151.01063749886848L52.245200000000004,152.1379909374261L52.343199999999996,153.11202425506758L52.4272,153.95358900174224L52.5056,154.68070091318282L52.5728,155.3089255825067L52.5784,155.85171168025968L52.7044,156.32067885636906L52.7324,156.7258664873089L52.836,157.07594859355927L52.855599999999995,157.37841952822245L53.3624,157.6397544119366L53.6256,157.8655477486029L53.9056,158.0606331893456L54.0148,158.229187008552L54.1156,158.3748175071555L54.205200000000005,158.50064225705998L54.7316,158.6093548403138L55.193599999999996,158.70328251174973L55.308400000000006,158.78443601950056L55.3112,158.85455264992126L55.5436,158.91513341839863L55.6276,158.96747520220927L55.7032,159.0126985033068L55.7676,159.05177143536937L55.8572,159.08553044860741L55.9244,159.11469823599734L55.9412,159.13989920426656L55.980399999999996,159.16167284082454L56.1764,159.18048526279077L56.251999999999995,159.19673919535475L56.3388,159.21078259307896L56.3864,159.22291608870444L56.534800000000004,159.23339942891866L56.9576,159.24245703485911L57.105999999999995,159.25028280638824L57.245999999999995,159.25704427298686L57.2824,159.26288618012615L57.4028,159.26793358789305L57.4504,159.27229454820258L57.5708,159.27606241790923L57.8004,159.27931785733517L57.806,159.28213055699874L57.9796,159.28456072950775L58.0272,159.28666039855526L58.8644,159.28847451261214L58.9008,159.29004190715713L58.9512,159.29139613604391L59.063199999999995,159.29256618980202L59.1304,159.29357711624897L59.3936,159.29445055669908L59.4104,159.29520520924794L59.7268,159.29585722905014L59.9032,159.29642057415924L59.9452,159.29690730433344L61.093199999999996,159.297327839204L61.2276,159.2976911813321L61.675599999999996,159.29800510893082L61.8128,159.29827634237608L62.4848,159.29851068807278L62.59119999999999,159.29871316275475L62.714400000000005,159.29888810087996L62.72,159.29903924742013L62.93279999999999,159.29916983803085L63.282799999999995,159.2992826683185L63.5824,159.29938015368705L64.1228,159.29946438104545L64.134,159.29953715348313L64.2432,159.29960002886926L65.2512,159.2996543532029L65.3772,159.29970128942713L65.4864,159.2997418423249L65.5704,159.29977688002856L65.674,159.29980715260453L65.86160000000001,159.29983330811015L65.94,159.29985590646703L66.1444,159.29987543144736L66.1976,159.29989230103035L66.2116,159.2999068763501L66.6456,159.29991946942633L66.77720000000001,159.29993034984417L67.11880000000001,159.29993975052523L67.144,159.29994787271363L67.21679999999999,159.29995489028445L67.3288,159.2999609534656L67.7264,159.29996619205414L67.7768,159.2999707181946L67.94200000000001,159.29997462878L68.1912,159.29997800752577L68.21079999999999,159.29998092676212L68.69800000000001,159.29998344898232L68.9444,159.29998562818056L69.006,159.29998751100786L69.286,159.29998913777064L69.5828,159.2999905432937L69.6192,159.2999917576656L70.0532,159.29999280688293L70.182,159.29999371340668L70.196,159.29999449664322L70.3472,159.2999951733596L70.518,159.29999575804254L71.0388,159.2999962632086L71.372,159.29999669967208L71.708,159.29999707677652L71.7864,159.29999740259476L73.0128,159.29999768410175L73.47479999999999,159.29999792732374L73.67639999999999,159.29999813746758L73.8976,159.29999831903183L73.9956,159.29999847590335L75.13520000000001,159.29999861144034L75.2248,159.2999987285443L75.264,159.2999988297221L75.2724,159.29999891713976L75.33959999999999,159.2999989926686L75.4516,159.29999905792553L75.93599999999999,159.2999991143075L75.9528,159.2999991630215L75.9556,159.29999920511045L76.3364,159.29999924147526L76.70320000000001,159.2999992728945L76.8068,159.29999930004067L77.1764,159.299999323495L77.3696,159.29999934375954L77.5516,159.29999936126808L77.6468,159.29999937639548L78.414,159.29999938946554L78.7388,159.29999940075808L78.7612,159.29999941051483L78.7724,159.29999941894465L78.7836,159.29999942622803L79.534,159.29999943252088L79.74680000000001,159.2999994379579L79.77199999999999,159.29999944265543L80.5252,159.29999944671417L80.542,159.2999994502209L80.584,159.29999945325068L80.62599999999999,159.29999945586846L80.9312,159.2999994581302L81.5052,159.29999946008434L81.5164,159.29999946177273L81.7852,159.29999946323147L82.0932,159.29999946449183L82.25559999999999,159.29999946558078L82.3368,159.29999946652165L82.59440000000001,159.29999946733457L82.6028,159.2999994680369L82.7288,159.29999946864373L82.9276,159.29999946916803L83.5548,159.29999946962104L83.7816,159.2999994700124L83.99719999999999,159.2999994703506L85.1032,159.29999947064275L85.3804,159.2999994708952L85.6184,159.2999994711133L85.6268,159.29999947130173L85.7304,159.29999947146453L85.8088,159.29999947160522L85.8592,159.29999947172678L85.8648,159.29999947183177L86.128,159.29999947192252L86.35480000000001,159.29999947200088L86.6628,159.2999994720686L86.7104,159.29999947212713L86.7412,159.2999994721777L86.8,159.29999947222137L86.9008,159.29999947225912L86.9456,159.29999947229172L87.16120000000001,159.29999947231988L87.4524,159.29999947234424L87.5476,159.29999947236527L87.6708,159.29999947238343L88.4296,159.29999947239915L88.69279999999999,159.2999994724127L88.6984,159.29999947242445L89.77640000000001,159.29999947243456L90.0536,159.2999994724433L90.45960000000001,159.29999947245085L90.66399999999999,159.29999947245742L91.56559999999999,159.29999947246304L91.7168,159.29999947246793L91.7868,159.29999947247214L92.1788,159.29999947247575L92.5988,159.2999994724789L92.69680000000001,159.29999947248163L93.324,159.29999947248396L93.5368,159.299999472486L93.5396,159.29999947248774L93.80000000000001,159.29999947248928L94.04920000000001,159.29999947249058L94.206,159.29999947249172L95.396,159.2999994724927L96.2584,159.29999947249354L96.5132,159.29999947249425L96.5244,159.29999947249487L96.5776,159.29999947249544L97.1712,159.2999994724959L97.21039999999999,159.29999947249632L97.3224,159.29999947249667L97.5184,159.29999947249698L97.5604,159.2999994724972L97.65,159.29999947249746L97.6696,159.29999947249766L97.8264,159.2999994724978L97.9748,159.29999947249797L98.14840000000001,159.2999994724981L98.3136,159.2999994724982L98.69720000000001,159.29999947249829L99.24319999999999,159.29999947249837L99.81719999999999,159.29999947249843L99.9684,159.29999947249848L99.9964,159.29999947249857L100.00200000000001,159.2999994724986L100.1196,159.29999947249863L100.5676,159.29999947249868L100.6012,159.2999994724987L101.22840000000001,159.29999947249874L101.5364,159.29999947249874L101.64840000000001,159.29999947249877L101.8556,159.2999994724988L101.97879999999999,159.2999994724988L102.6088,159.2999994724988L102.7404,159.29999947249883L102.9084,159.29999947249883L103.0848,159.29999947249883L103.51599999999999,159.29999947249885L103.6392,159.29999947249885L103.6812,159.29999947249885L103.8912,159.29999947249888L103.9444,159.29999947249888L104.4624,159.29999947249888L104.6276,159.29999947249888L104.8712,159.29999947249888L105.05879999999999,159.29999947249888L105.3528,159.29999947249888L105.42280000000001,159.29999947249888L105.8176,159.29999947249888L105.9324,159.29999947249888L106.1032,159.29999947249888L106.41680000000001,159.29999947249888L106.526,159.29999947249888L106.68560000000001,159.29999947249888L107.41640000000001,159.29999947249888L107.6656,159.29999947249888L107.688,159.29999947249888L107.842,159.29999947249888L108.122,159.29999947249888L108.6232,159.29999947249888L108.7912,159.29999947249888L108.8696,159.29999947249888L109.1216,159.29999947249888L109.15520000000001,159.29999947249888L109.5528,159.29999947249888L109.9252,159.29999947249888L110.068,159.29999947249888L110.4068,159.29999947249888L110.57199999999999,159.29999947249888L110.782,159.29999947249888L110.93599999999999,159.29999947249888L110.9808,159.29999947249888L111.0788,159.29999947249888L111.0956,159.29999947249888L111.3952,159.29999947249888L111.5268,159.29999947249888L111.5744,159.29999947249888L111.6472,159.29999947249888L111.9272,159.29999947249888L111.9972,159.29999947249888L112.15400000000001,159.29999947249888L112.1876,159.29999947249888L112.224,159.29999947249888L112.71679999999999,159.29999947249888L112.72800000000001,159.29999947249888L112.84,159.29999947249888L112.9324,159.29999947249888L113.9684,159.29999947249888L114.4976,159.29999947249888L114.5732,159.29999947249888L114.68520000000001,159.29999947249888L114.7076,159.29999947249888L114.8168,159.29999947249888L115.4832,159.29999947249888L115.67920000000001,159.29999947249888L115.8528,159.29999947249888L115.94800000000001,159.29999947249888L116.1132,159.29999947249888L116.4996,159.29999947249888L116.64800000000001,159.29999947249888L116.75999999999999,159.29999947249888L117.3256,159.29999947249888L117.3704,159.29999947249888L117.4684,159.29999947249888L117.53280000000001,159.29999947249888L117.6392,159.29999947249888L118.0844,159.29999947249888L119.0196,159.29999947249888L119.1932,159.29999947249888L119.3248,159.29999947249888L119.8708,159.29999947249888L119.9072,159.29999947249888L119.91000000000001,159.29999947249888L120.1256,159.29999947249888L120.3048,159.29999947249888L120.4336,159.29999947249888L121.1812,159.29999947249888L121.5424,159.29999947249888L121.5928,159.29999947249888L122.36280000000001,159.29999947249888L122.6484,159.29999947249888L122.8052,159.29999947249888L122.8192,159.29999947249888L122.8248,159.29999947249888L122.8808,159.29999947249888L123.2588,159.29999947249888L123.4492,159.29999947249888L123.4996,159.29999947249888L123.98679999999999,159.29999947249888L124.49919999999999,159.29999947249888L124.53,159.29999947249888L124.5972,159.29999947249888L124.9444,159.29999947249888L125.6556,159.29999947249888L125.7452,159.29999947249888L125.8068,159.29999947249888L125.85159999999999,159.29999947249888L125.8572,159.29999947249888L125.86280000000001,159.29999947249888L125.9076,159.29999947249888L126.12880000000001,159.29999947249888L126.3192,159.29999947249888L126.39200000000001,159.29999947249888L126.6076,159.29999947249888L127.0556,159.29999947249888L127.2992,159.29999947249888L127.3356,159.29999947249888L127.54280000000001,159.29999947249888L127.62119999999999,159.29999947249888L127.77799999999999,159.29999947249888L127.9712,159.29999947249888L128.1392,159.29999947249888L128.44719999999998,159.29999947249888L128.5564,159.29999947249888L128.6544,159.29999947249888L128.8224,159.29999947249888L129.3208,159.29999947249888L130.2028,159.29999947249888L130.5136,159.29999947249888L130.5668,159.29999947249888L130.7208,159.29999947249888L130.7432,159.29999947249888L131.2808,159.29999947249888L131.28640000000001,159.29999947249888L131.2948,159.29999947249888L131.3284,159.29999947249888L131.36759999999998,159.29999947249888L131.5888,159.29999947249888L131.782,159.29999947249888L131.8212,159.29999947249888L131.9248,159.29999947249888L132.1096,159.29999947249888L132.9944,159.29999947249888L133.4116,159.29999947249888L133.4872,159.29999947249888L133.6972,159.29999947249888L133.8484,159.29999947249888L133.8624,159.29999947249888L134.2236,159.29999947249888L135.48080000000002,159.29999947249888L135.4836,159.29999947249888L135.54240000000001,159.29999947249888L135.7636,159.29999947249888L135.8504,159.29999947249888L135.9764,159.29999947249888L136.654,159.29999947249888L136.7492,159.29999947249888L136.864,159.29999947249888L136.9144,159.29999947249888L137.27,159.29999947249888L137.8664,159.29999947249888L138.5356,159.29999947249888L138.7428,159.29999947249888L138.8464,159.29999947249888L138.8828,159.29999947249888L139.1936,159.29999947249888L139.4708,159.29999947249888L140.084,159.29999947249888L140.308,159.29999947249888L140.4872,159.29999947249888L140.6608,159.29999947249888L140.6972,159.29999947249888L140.798,159.29999947249888L140.9128,159.29999947249888L140.9296,159.29999947249888L141.1648,159.29999947249888L141.4616,159.29999947249888L141.512,159.29999947249888L141.6604,159.29999947249888L141.7276,159.29999947249888L142.22039999999998,159.29999947249888L142.2428,159.29999947249888L142.3772,159.29999947249888L142.4724,159.29999947249888L142.5788,159.29999947249888L142.6376,159.29999947249888L142.9204,159.29999947249888L142.996,159.29999947249888L143.0044,159.29999947249888L143.01559999999998,159.29999947249888L143.53640000000001,159.29999947249888L143.6148,159.29999947249888L143.8472,159.29999947249888L144.1244,159.29999947249888L144.3008,159.29999947249888L144.31480000000002,159.29999947249888L144.3848,159.29999947249888L144.508,159.29999947249888L144.6312,159.29999947249888L144.96159999999998,159.29999947249888L145.3536,159.29999947249888L145.5104,159.29999947249888L145.6336,159.29999947249888L145.74280000000002,159.29999947249888L145.9304,159.29999947249888L145.95839999999998,159.29999947249888L145.9668,159.29999947249888L146.804,159.29999947249888L146.8908,159.29999947249888L147.09799999999998,159.29999947249888L147.994,159.29999947249888L148.0332,159.29999947249888L148.12,159.29999947249888L148.2628,159.29999947249888L148.7864,159.29999947249888L149.0468,159.29999947249888L149.0552,159.29999947249888L149.2288,159.29999947249888L149.9512,159.29999947249888L150.11079999999998,159.29999947249888L150.57559999999998,159.29999947249888L150.86399999999998,159.29999947249888L151.70399999999998,159.29999947249888L151.914,159.29999947249888L151.9924,159.29999947249888L152.1772,159.29999947249888L152.2164,159.29999947249888L152.3564,159.29999947249888L152.4964,159.29999947249888L152.5216,159.29999947249888L152.55519999999999,159.29999947249888L152.66160000000002,159.29999947249888L152.94719999999998,159.29999947249888L153.1908,159.29999947249888L153.22719999999998,159.29999947249888L153.244,159.29999947249888L153.3308,159.29999947249888L153.93280000000001,159.29999947249888L154.0392,159.29999947249888L154.126,159.29999947249888L155.07799999999997,159.29999947249888L155.1956,159.29999947249888L155.484,159.29999947249888L155.5988,159.29999947249888L156.1196,159.29999947249888L156.73,159.29999947249888L157.5672,159.29999947249888L158.17759999999998,159.29999947249888L158.2112,159.29999947249888L158.508,159.29999947249888L158.8216,159.29999947249888L159.24720000000002,159.29999947249888L159.292,159.29999947249888L159.348,159.29999947249888L159.64759999999998,159.29999947249888L159.6896,159.29999947249888L159.72879999999998,159.29999947249888L159.7764,159.29999947249888L159.7876,159.29999947249888L159.83239999999998,159.29999947249888L159.9136,159.29999947249888L160.04520000000002,159.29999947249888L160.0984,159.29999947249888L160.4512,159.29999947249888L160.5744,159.29999947249888L160.88520000000003,159.29999947249888L161.12879999999998,159.29999947249888L161.3108,159.29999947249888L161.35000000000002,159.29999947249888L161.7756,159.29999947249888L162.3972,159.29999947249888L162.9292,159.29999947249888L162.95440000000002,159.29999947249888L163.0916,159.29999947249888L163.478,159.29999947249888L163.82799999999997,159.29999947249888L164.178,159.29999947249888L164.3488,159.29999947249888L164.4076,159.29999947249888L164.7604,159.29999947249888L165.4604,159.29999947249888L165.494,159.29999947249888L165.662,159.29999947249888L165.7628,159.29999947249888L165.9504,159.29999947249888L166.07920000000001,159.29999947249888L166.2108,159.29999947249888L166.55239999999998,159.29999947249888L166.6756,159.29999947249888L167.1348,159.29999947249888L167.1656,159.29999947249888L167.30560000000003,159.29999947249888L167.5884,159.29999947249888L167.61919999999998,159.29999947249888L167.89079999999998,159.29999947249888L167.93,159.29999947249888L168.028,159.29999947249888L168.47879999999998,159.29999947249888L168.7308,159.29999947249888L168.9016,159.29999947249888L169.23200000000003,159.29999947249888L169.414,159.29999947249888L169.6744,159.29999947249888L169.6884,159.29999947249888L169.7892,159.29999947249888L169.9516,159.29999947249888L170.10559999999998,159.29999947249888L170.1308,159.29999947249888L170.1364,159.29999947249888L170.2932,159.29999947249888L170.5172,159.29999947249888L171.06320000000002,159.29999947249888L172.1104,159.29999947249888L172.48,159.29999947249888L173.0316,159.29999947249888L173.404,159.29999947249888L173.4208,159.29999947249888L173.46,159.29999947249888L173.5188,159.29999947249888L173.63639999999998,159.29999947249888L174.2412,159.29999947249888L174.3364,159.29999947249888L174.5856,159.29999947249888L174.61919999999998,159.29999947249888L174.71720000000002,159.29999947249888L175.1092,159.29999947249888L175.1316,159.29999947249888L175.3948,159.29999947249888L175.4648,159.29999947249888L176.30759999999998,159.29999947249888L176.58200000000002,159.29999947249888L176.6296,159.29999947249888L177.1112,159.29999947249888L178.1444,159.29999947249888L178.668,159.29999947249888L179.14960000000002,159.29999947249888L179.31480000000002,159.29999947249888L179.6116,159.29999947249888L180.4824,159.29999947249888L180.84640000000002,159.29999947249888L180.85760000000002,159.29999947249888L180.894,159.29999947249888L181.3448,159.29999947249888L182.182,159.29999947249888L182.22119999999998,159.29999947249888L182.336,159.29999947249888L182.41439999999997,159.29999947249888L182.43959999999998,159.29999947249888L182.73080000000002,159.29999947249888L183.0276,159.29999947249888L183.3972,159.29999947249888L183.63240000000002,159.29999947249888L183.6408,159.29999947249888L183.6996,159.29999947249888L183.7612,159.29999947249888L184.0104,159.29999947249888L184.43599999999998,159.29999947249888L184.7496,159.29999947249888L184.83079999999998,159.29999947249888L185.1696,159.29999947249888L185.27040000000002,159.29999947249888L185.388,159.29999947249888L185.6148,159.29999947249888L185.6932,159.29999947249888L186.13559999999998,159.29999947249888L186.1468,159.29999947249888L186.1636,159.29999947249888L186.9308,159.29999947249888L187.0148,159.29999947249888L187.0204,159.29999947249888L187.4096,159.29999947249888L187.4852,159.29999947249888L187.78480000000002,159.29999947249888L188.4428,159.29999947249888L188.7536,159.29999947249888L188.86280000000002,159.29999947249888L189.238,159.29999947249888L189.7868,159.29999947249888L189.8176,159.29999947249888L190.11440000000002,159.29999947249888L190.2432,159.29999947249888L190.3048,159.29999947249888L190.3384,159.29999947249888L190.876,159.29999947249888L191.4276,159.29999947249888L191.5116,159.29999947249888L191.53400000000002,159.29999947249888L191.6516,159.29999947249888L192.122,159.29999947249888L192.234,159.29999947249888L192.44400000000002,159.29999947249888L192.5448,159.29999947249888L192.822,159.29999947249888L193.3596,159.29999947249888L193.9616,159.29999947249888L194.15200000000002,159.29999947249888L194.558,159.29999947249888L194.7484,159.29999947249888L194.754,159.29999947249888L195.7144,159.29999947249888L195.9216,159.29999947249888L196.0028,159.29999947249888L196.0392,159.29999947249888L196.35000000000002,159.29999947249888L196.5012,159.29999947249888L196.784,159.29999947249888L197.2068,159.29999947249888L198.6824,159.29999947249888L199.2984,159.29999947249888L199.4132,159.29999947249888L199.88080000000002,159.29999947249888L199.906,159.29999947249888L199.91439999999997,159.29999947249888L200.23080000000002,159.29999947249888L200.648,159.29999947249888L200.83,159.29999947249888L200.87759999999997,159.29999947249888L201.06240000000003,159.29999947249888L201.3312,159.29999947249888L201.3368,159.29999947249888L201.4348,159.29999947249888L201.5132,159.29999947249888L201.572,159.29999947249888L201.5748,159.29999947249888L201.74560000000002,159.29999947249888L201.8268,159.29999947249888L202.5632,159.29999947249888L202.68079999999998,159.29999947249888L202.9636,159.29999947249888L203.1624,159.29999947249888L203.168,159.29999947249888L203.54039999999998,159.29999947249888L203.896,159.29999947249888L203.93800000000002,159.29999947249888L204.3104,159.29999947249888L204.59879999999998,159.29999947249888L204.82000000000002,159.29999947249888L204.8508,159.29999947249888L204.91520000000003,159.29999947249888L205.0944,159.29999947249888L205.9904,159.29999947249888L206.14159999999998,159.29999947249888L206.3236,159.29999947249888L206.8444,159.29999947249888L206.934,159.29999947249888L207.1104,159.29999947249888L207.45479999999998,159.29999947249888L207.5584,159.29999947249888L208.59720000000002,159.29999947249888L208.87439999999998,159.29999947249888L208.9612,159.29999947249888L209.7032,159.29999947249888L209.7984,159.29999947249888L210.91,159.29999947249888L211.0416,159.29999947249888L211.1676,159.29999947249888L211.24599999999998,159.29999947249888L211.2544,159.29999947249888L211.5624,159.29999947249888L211.9152,159.29999947249888L212.0216,159.29999947249888L212.10840000000002,159.29999947249888L212.296,159.29999947249888L212.3548,159.29999947249888L212.4024,159.29999947249888L212.61239999999998,159.29999947249888L212.67680000000001,159.29999947249888L212.76360000000003,159.29999947249888L213.0884,159.29999947249888L213.1164,159.29999947249888L213.388,159.29999947249888L213.444,159.29999947249888L213.4832,159.29999947249888L213.6176,159.29999947249888L214.2252,159.29999947249888L214.5724,159.29999947249888L214.6256,159.29999947249888L214.6592,159.29999947249888L214.704,159.29999947249888L214.7096,159.29999947249888L214.75160000000002,159.29999947249888L214.8692,159.29999947249888L214.8776,159.29999947249888L214.984,159.29999947249888L215.852,159.29999947249888L216.1124,159.29999947249888L216.2636,159.29999947249888L216.3868,159.29999947249888L216.6808,159.29999947249888L216.7396,159.29999947249888L217.0308,159.29999947249888L217.0644,159.29999947249888L217.9352,159.29999947249888L218.00799999999998,159.29999947249888L218.03040000000001,159.29999947249888L218.1144,159.29999947249888L218.3832,159.29999947249888L218.5932,159.29999947249888L218.9264,159.29999947249888L219.27079999999998,159.29999947249888L219.43040000000002,159.29999947249888L219.6264,159.29999947249888L219.67680000000001,159.29999947249888L220.0436,159.29999947249888L220.13320000000002,159.29999947249888L220.1444,159.29999947249888L220.2592,159.29999947249888L220.7128,159.29999947249888L220.74360000000001,159.29999947249888L221.3848,159.29999947249888L221.3988,159.29999947249888L221.85520000000002,159.29999947249888L222.14079999999998,159.29999947249888L222.3956,159.29999947249888L222.488,159.29999947249888L222.68120000000002,159.29999947249888L222.992,159.29999947249888L223.08999999999997,159.29999947249888L223.398,159.29999947249888L223.50160000000002,159.29999947249888L224.15120000000002,159.29999947249888L224.54600000000002,159.29999947249888L224.9436,159.29999947249888L224.94920000000002,159.29999947249888L225.00799999999998,159.29999947249888L225.6464,159.29999947249888L225.6604,159.29999947249888L225.7836,159.29999947249888L225.82,159.29999947249888L226.07479999999998,159.29999947249888L226.45,159.29999947249888L226.66279999999998,159.29999947249888L226.6824,159.29999947249888L226.8364,159.29999947249888L227.0268,159.29999947249888L227.2452,159.29999947249888L227.3768,159.29999947249888L227.4244,159.29999947249888L227.5168,159.29999947249888L227.7968,159.29999947249888L228.7432,159.29999947249888L228.928,159.29999947249888L228.9504,159.29999947249888L229.0736,159.29999947249888L229.1324,159.29999947249888L229.36200000000002,159.29999947249888L229.3844,159.29999947249888L229.88559999999998,159.29999947249888L229.936,159.29999947249888L230.4092,159.29999947249888L231.1064,159.29999947249888L231.14000000000001,159.29999947249888L231.238,159.29999947249888L231.336,159.29999947249888L231.40879999999999,159.29999947249888L232.3608,159.29999947249888L232.7472,159.29999947249888L232.9712,159.29999947249888L233.07760000000002,159.29999947249888L233.6684,159.29999947249888L233.7776,159.29999947249888L233.982,159.29999947249888L234.32080000000002,159.29999947249888L234.7464,159.29999947249888L234.878,159.29999947249888L234.962,159.29999947249888L234.9816,159.29999947249888L235.0404,159.29999947249888L235.2952,159.29999947249888L235.3008,159.29999947249888L235.3932,159.29999947249888L235.62,159.29999947249888L235.7376,159.29999947249888L236.0568,159.29999947249888L236.3536,159.29999947249888L236.5496,159.29999947249888L236.8632,159.29999947249888L237.21040000000002,159.29999947249888L237.3168,159.29999947249888L237.538,159.29999947249888L237.5996,159.29999947249888L238.01399999999998,159.29999947249888L238.2716,159.29999947249888L238.27439999999999,159.29999947249888L238.308,159.29999947249888L238.40879999999999,159.29999947249888L238.51520000000002,159.29999947249888L238.57399999999998,159.29999947249888L239.0332,159.29999947249888L239.2376,159.29999947249888L239.274,159.29999947249888L239.3916,159.29999947249888L239.582,159.29999947249888L239.71359999999999,159.29999947249888L239.918,159.29999947249888L240.4808,159.29999947249888L240.68800000000002,159.29999947249888L240.814,159.29999947249888L241.41039999999998,159.29999947249888L241.41320000000002,159.29999947249888L241.6568,159.29999947249888L242.1608,159.29999947249888L242.1636,159.29999947249888L242.2868,159.29999947249888L242.4436,159.29999947249888L243.0204,159.29999947249888L243.404,159.29999947249888L243.4236,159.29999947249888L243.6336,159.29999947249888L243.6532,159.29999947249888L243.68959999999998,159.29999947249888L244.00599999999997,159.29999947249888L244.6948,159.29999947249888L245.0168,159.29999947249888L245.15400000000002,159.29999947249888L245.16240000000002,159.29999947249888L245.3052,159.29999947249888L245.58239999999998,159.29999947249888L245.588,159.29999947249888L245.8568,159.29999947249888L245.9744,159.29999947249888L246.26,159.29999947249888L246.5092,159.29999947249888L246.568,159.29999947249888L246.64919999999998,159.29999947249888L246.8032,159.29999947249888L246.92079999999999,159.29999947249888L247.0412,159.29999947249888L247.17000000000002,159.29999947249888L247.3212,159.29999947249888L247.3772,159.29999947249888L247.38559999999998,159.29999947249888L247.5844,159.29999947249888L247.618,159.29999947249888L247.8476,159.29999947249888L247.856,159.29999947249888L248.052,159.29999947249888L248.1864,159.29999947249888L248.486,159.29999947249888L248.51399999999998,159.29999947249888L248.5224,159.29999947249888L249.0264,159.29999947249888L249.368,159.29999947249888L249.5556,159.29999947249888L249.61440000000002,159.29999947249888L249.6172,159.29999947249888L249.6984,159.29999947249888L249.844,159.29999947249888L250.7512,159.29999947249888L250.8156,159.29999947249888L251.62199999999999,159.29999947249888L251.79,159.29999947249888L252.6972,159.29999947249888L252.8092,159.29999947249888L253.3244,159.29999947249888L253.3804,159.29999947249888L253.52599999999998,159.29999947249888L254.09439999999998,159.29999947249888L255.1976,159.29999947249888L255.68200000000002,159.29999947249888L255.71,159.29999947249888L255.83040000000003,159.29999947249888L255.8332,159.29999947249888L256.0236,159.29999947249888L256.27,159.29999947249888L256.522,159.29999947249888L256.8188,159.29999947249888L257.0596,159.29999947249888L257.348,159.29999947249888L257.9164,159.29999947249888L258.0452,159.29999947249888L258.3028,159.29999947249888L258.9496,159.29999947249888L258.9524,159.29999947249888L259.1596,159.29999947249888L259.5824,159.29999947249888L259.6944,159.29999947249888L259.7364,159.29999947249888" style="fill: none;" fill="none"></path></g></g></g></g><g opacity="0.2"><g><g><g><path stroke="rgb(255, 112, 67)" stroke-width="2px" d="M37.800000000000004,-0.000004220008834376898L37.9848,2.3364036798477135L38.080000000000005,3.539992403984066L38.1248,4.106401991844173L38.2312,5.451593112945552L38.2704,5.947190952301021L38.2788,6.053408575057979L38.7744,12.319193315505977L38.961999999999996,14.691007089614864L39.264399999999995,18.514197957515712L39.505199999999995,21.558596742153163L39.5388,21.983403933048244L39.7068,24.107397687435146L39.7376,24.496799004077907L39.8356,25.735804152488704L40.0904,28.957200658321376L40.118399999999994,29.31119610071182L40.779199999999996,37.665600371360775L41.5296,47.152802717685695L42.252,56.28599907159805L42.3808,57.91439498662948L42.5236,59.71979917287826L42.56,60.180001688003536L42.7336,62.37479664087295L42.826,63.543000590801235L43.013600000000004,65.914803814888L43.2712,69.17159564495087L43.8676,76.71180195808411L44.3296,82.55280060768128L44.4248,83.75639988183976L44.4612,84.21660239696503L44.7468,87.82740021944046L44.7916,88.39379925727845L44.9484,90.37620116472245L45.1864,93.3852046251297L45.43,96.46499873399735L45.581199999999995,98.37659944295883L45.735200000000006,100.32359547615052L45.8332,101.56260062456131L46.3932,108.64259914755822L46.477199999999996,109.70460129976273L46.844,114.34200067520142L46.900000000000006,115.05000211000443L47.18,118.58999873399735L47.373200000000004,121.03259788155556L47.5748,123.58139882683754L47.5888,123.75840182304383L47.7512,125.81159965395928L48.3084,132.8561975777149L48.8208,139.33440173864363L48.8992,140.32559741735457L49.120400000000004,143.12220255732535L49.403200000000005,146.69759978055953L49.635600000000004,149.63580204248427L49.644000000000005,149.74199856519698L49.7168,150.662400957942L49.8232,152.00759999155997L49.8988,152.96340034604071L50.3608,158.80439899563788L50.7416,159.29999947249888L51.2148,159.29999947249888L51.934400000000004,159.29999947249888L51.9512,159.29999947249888L52.1304,159.29999947249888L52.245200000000004,159.29999947249888L52.343199999999996,159.29999947249888L52.4272,159.29999947249888L52.5056,159.29999947249888L52.5728,159.29999947249888L52.5784,159.29999947249888L52.7044,159.29999947249888L52.7324,159.29999947249888L52.836,159.29999947249888L52.855599999999995,159.29999947249888L53.3624,159.29999947249888L53.6256,159.29999947249888L53.9056,159.29999947249888L54.0148,159.29999947249888L54.1156,159.29999947249888L54.205200000000005,159.29999947249888L54.7316,159.29999947249888L55.193599999999996,159.29999947249888L55.308400000000006,159.29999947249888L55.3112,159.29999947249888L55.5436,159.29999947249888L55.6276,159.29999947249888L55.7032,159.29999947249888L55.7676,159.29999947249888L55.8572,159.29999947249888L55.9244,159.29999947249888L55.9412,159.29999947249888L55.980399999999996,159.29999947249888L56.1764,159.29999947249888L56.251999999999995,159.29999947249888L56.3388,159.29999947249888L56.3864,159.29999947249888L56.534800000000004,159.29999947249888L56.9576,159.29999947249888L57.105999999999995,159.29999947249888L57.245999999999995,159.29999947249888L57.2824,159.29999947249888L57.4028,159.29999947249888L57.4504,159.29999947249888L57.5708,159.29999947249888L57.8004,159.29999947249888L57.806,159.29999947249888L57.9796,159.29999947249888L58.0272,159.29999947249888L58.8644,159.29999947249888L58.9008,159.29999947249888L58.9512,159.29999947249888L59.063199999999995,159.29999947249888L59.1304,159.29999947249888L59.3936,159.29999947249888L59.4104,159.29999947249888L59.7268,159.29999947249888L59.9032,159.29999947249888L59.9452,159.29999947249888L61.093199999999996,159.29999947249888L61.2276,159.29999947249888L61.675599999999996,159.29999947249888L61.8128,159.29999947249888L62.4848,159.29999947249888L62.59119999999999,159.29999947249888L62.714400000000005,159.29999947249888L62.72,159.29999947249888L62.93279999999999,159.29999947249888L63.282799999999995,159.29999947249888L63.5824,159.29999947249888L64.1228,159.29999947249888L64.134,159.29999947249888L64.2432,159.29999947249888L65.2512,159.29999947249888L65.3772,159.29999947249888L65.4864,159.29999947249888L65.5704,159.29999947249888L65.674,159.29999947249888L65.86160000000001,159.29999947249888L65.94,159.29999947249888L66.1444,159.29999947249888L66.1976,159.29999947249888L66.2116,159.29999947249888L66.6456,159.29999947249888L66.77720000000001,159.29999947249888L67.11880000000001,159.29999947249888L67.144,159.29999947249888L67.21679999999999,159.29999947249888L67.3288,159.29999947249888L67.7264,159.29999947249888L67.7768,159.29999947249888L67.94200000000001,159.29999947249888L68.1912,159.29999947249888L68.21079999999999,159.29999947249888L68.69800000000001,159.29999947249888L68.9444,159.29999947249888L69.006,159.29999947249888L69.286,159.29999947249888L69.5828,159.29999947249888L69.6192,159.29999947249888L70.0532,159.29999947249888L70.182,159.29999947249888L70.196,159.29999947249888L70.3472,159.29999947249888L70.518,159.29999947249888L71.0388,159.29999947249888L71.372,159.29999947249888L71.708,159.29999947249888L71.7864,159.29999947249888L73.0128,159.29999947249888L73.47479999999999,159.29999947249888L73.67639999999999,159.29999947249888L73.8976,159.29999947249888L73.9956,159.29999947249888L75.13520000000001,159.29999947249888L75.2248,159.29999947249888L75.264,159.29999947249888L75.2724,159.29999947249888L75.33959999999999,159.29999947249888L75.4516,159.29999947249888L75.93599999999999,159.29999947249888L75.9528,159.29999947249888L75.9556,159.29999947249888L76.3364,159.29999947249888L76.70320000000001,159.29999947249888L76.8068,159.29999947249888L77.1764,159.29999947249888L77.3696,159.29999947249888L77.5516,159.29999947249888L77.6468,159.29999947249888L78.414,159.29999947249888L78.7388,159.29999947249888L78.7612,159.29999947249888L78.7724,159.29999947249888L78.7836,159.29999947249888L79.534,159.29999947249888L79.74680000000001,159.29999947249888L79.77199999999999,159.29999947249888L80.5252,159.29999947249888L80.542,159.29999947249888L80.584,159.29999947249888L80.62599999999999,159.29999947249888L80.9312,159.29999947249888L81.5052,159.29999947249888L81.5164,159.29999947249888L81.7852,159.29999947249888L82.0932,159.29999947249888L82.25559999999999,159.29999947249888L82.3368,159.29999947249888L82.59440000000001,159.29999947249888L82.6028,159.29999947249888L82.7288,159.29999947249888L82.9276,159.29999947249888L83.5548,159.29999947249888L83.7816,159.29999947249888L83.99719999999999,159.29999947249888L85.1032,159.29999947249888L85.3804,159.29999947249888L85.6184,159.29999947249888L85.6268,159.29999947249888L85.7304,159.29999947249888L85.8088,159.29999947249888L85.8592,159.29999947249888L85.8648,159.29999947249888L86.128,159.29999947249888L86.35480000000001,159.29999947249888L86.6628,159.29999947249888L86.7104,159.29999947249888L86.7412,159.29999947249888L86.8,159.29999947249888L86.9008,159.29999947249888L86.9456,159.29999947249888L87.16120000000001,159.29999947249888L87.4524,159.29999947249888L87.5476,159.29999947249888L87.6708,159.29999947249888L88.4296,159.29999947249888L88.69279999999999,159.29999947249888L88.6984,159.29999947249888L89.77640000000001,159.29999947249888L90.0536,159.29999947249888L90.45960000000001,159.29999947249888L90.66399999999999,159.29999947249888L91.56559999999999,159.29999947249888L91.7168,159.29999947249888L91.7868,159.29999947249888L92.1788,159.29999947249888L92.5988,159.29999947249888L92.69680000000001,159.29999947249888L93.324,159.29999947249888L93.5368,159.29999947249888L93.5396,159.29999947249888L93.80000000000001,159.29999947249888L94.04920000000001,159.29999947249888L94.206,159.29999947249888L95.396,159.29999947249888L96.2584,159.29999947249888L96.5132,159.29999947249888L96.5244,159.29999947249888L96.5776,159.29999947249888L97.1712,159.29999947249888L97.21039999999999,159.29999947249888L97.3224,159.29999947249888L97.5184,159.29999947249888L97.5604,159.29999947249888L97.65,159.29999947249888L97.6696,159.29999947249888L97.8264,159.29999947249888L97.9748,159.29999947249888L98.14840000000001,159.29999947249888L98.3136,159.29999947249888L98.69720000000001,159.29999947249888L99.24319999999999,159.29999947249888L99.81719999999999,159.29999947249888L99.9684,159.29999947249888L99.9964,159.29999947249888L100.00200000000001,159.29999947249888L100.1196,159.29999947249888L100.5676,159.29999947249888L100.6012,159.29999947249888L101.22840000000001,159.29999947249888L101.5364,159.29999947249888L101.64840000000001,159.29999947249888L101.8556,159.29999947249888L101.97879999999999,159.29999947249888L102.6088,159.29999947249888L102.7404,159.29999947249888L102.9084,159.29999947249888L103.0848,159.29999947249888L103.51599999999999,159.29999947249888L103.6392,159.29999947249888L103.6812,159.29999947249888L103.8912,159.29999947249888L103.9444,159.29999947249888L104.4624,159.29999947249888L104.6276,159.29999947249888L104.8712,159.29999947249888L105.05879999999999,159.29999947249888L105.3528,159.29999947249888L105.42280000000001,159.29999947249888L105.8176,159.29999947249888L105.9324,159.29999947249888L106.1032,159.29999947249888L106.41680000000001,159.29999947249888L106.526,159.29999947249888L106.68560000000001,159.29999947249888L107.41640000000001,159.29999947249888L107.6656,159.29999947249888L107.688,159.29999947249888L107.842,159.29999947249888L108.122,159.29999947249888L108.6232,159.29999947249888L108.7912,159.29999947249888L108.8696,159.29999947249888L109.1216,159.29999947249888L109.15520000000001,159.29999947249888L109.5528,159.29999947249888L109.9252,159.29999947249888L110.068,159.29999947249888L110.4068,159.29999947249888L110.57199999999999,159.29999947249888L110.782,159.29999947249888L110.93599999999999,159.29999947249888L110.9808,159.29999947249888L111.0788,159.29999947249888L111.0956,159.29999947249888L111.3952,159.29999947249888L111.5268,159.29999947249888L111.5744,159.29999947249888L111.6472,159.29999947249888L111.9272,159.29999947249888L111.9972,159.29999947249888L112.15400000000001,159.29999947249888L112.1876,159.29999947249888L112.224,159.29999947249888L112.71679999999999,159.29999947249888L112.72800000000001,159.29999947249888L112.84,159.29999947249888L112.9324,159.29999947249888L113.9684,159.29999947249888L114.4976,159.29999947249888L114.5732,159.29999947249888L114.68520000000001,159.29999947249888L114.7076,159.29999947249888L114.8168,159.29999947249888L115.4832,159.29999947249888L115.67920000000001,159.29999947249888L115.8528,159.29999947249888L115.94800000000001,159.29999947249888L116.1132,159.29999947249888L116.4996,159.29999947249888L116.64800000000001,159.29999947249888L116.75999999999999,159.29999947249888L117.3256,159.29999947249888L117.3704,159.29999947249888L117.4684,159.29999947249888L117.53280000000001,159.29999947249888L117.6392,159.29999947249888L118.0844,159.29999947249888L119.0196,159.29999947249888L119.1932,159.29999947249888L119.3248,159.29999947249888L119.8708,159.29999947249888L119.9072,159.29999947249888L119.91000000000001,159.29999947249888L120.1256,159.29999947249888L120.3048,159.29999947249888L120.4336,159.29999947249888L121.1812,159.29999947249888L121.5424,159.29999947249888L121.5928,159.29999947249888L122.36280000000001,159.29999947249888L122.6484,159.29999947249888L122.8052,159.29999947249888L122.8192,159.29999947249888L122.8248,159.29999947249888L122.8808,159.29999947249888L123.2588,159.29999947249888L123.4492,159.29999947249888L123.4996,159.29999947249888L123.98679999999999,159.29999947249888L124.49919999999999,159.29999947249888L124.53,159.29999947249888L124.5972,159.29999947249888L124.9444,159.29999947249888L125.6556,159.29999947249888L125.7452,159.29999947249888L125.8068,159.29999947249888L125.85159999999999,159.29999947249888L125.8572,159.29999947249888L125.86280000000001,159.29999947249888L125.9076,159.29999947249888L126.12880000000001,159.29999947249888L126.3192,159.29999947249888L126.39200000000001,159.29999947249888L126.6076,159.29999947249888L127.0556,159.29999947249888L127.2992,159.29999947249888L127.3356,159.29999947249888L127.54280000000001,159.29999947249888L127.62119999999999,159.29999947249888L127.77799999999999,159.29999947249888L127.9712,159.29999947249888L128.1392,159.29999947249888L128.44719999999998,159.29999947249888L128.5564,159.29999947249888L128.6544,159.29999947249888L128.8224,159.29999947249888L129.3208,159.29999947249888L130.2028,159.29999947249888L130.5136,159.29999947249888L130.5668,159.29999947249888L130.7208,159.29999947249888L130.7432,159.29999947249888L131.2808,159.29999947249888L131.28640000000001,159.29999947249888L131.2948,159.29999947249888L131.3284,159.29999947249888L131.36759999999998,159.29999947249888L131.5888,159.29999947249888L131.782,159.29999947249888L131.8212,159.29999947249888L131.9248,159.29999947249888L132.1096,159.29999947249888L132.9944,159.29999947249888L133.4116,159.29999947249888L133.4872,159.29999947249888L133.6972,159.29999947249888L133.8484,159.29999947249888L133.8624,159.29999947249888L134.2236,159.29999947249888L135.48080000000002,159.29999947249888L135.4836,159.29999947249888L135.54240000000001,159.29999947249888L135.7636,159.29999947249888L135.8504,159.29999947249888L135.9764,159.29999947249888L136.654,159.29999947249888L136.7492,159.29999947249888L136.864,159.29999947249888L136.9144,159.29999947249888L137.27,159.29999947249888L137.8664,159.29999947249888L138.5356,159.29999947249888L138.7428,159.29999947249888L138.8464,159.29999947249888L138.8828,159.29999947249888L139.1936,159.29999947249888L139.4708,159.29999947249888L140.084,159.29999947249888L140.308,159.29999947249888L140.4872,159.29999947249888L140.6608,159.29999947249888L140.6972,159.29999947249888L140.798,159.29999947249888L140.9128,159.29999947249888L140.9296,159.29999947249888L141.1648,159.29999947249888L141.4616,159.29999947249888L141.512,159.29999947249888L141.6604,159.29999947249888L141.7276,159.29999947249888L142.22039999999998,159.29999947249888L142.2428,159.29999947249888L142.3772,159.29999947249888L142.4724,159.29999947249888L142.5788,159.29999947249888L142.6376,159.29999947249888L142.9204,159.29999947249888L142.996,159.29999947249888L143.0044,159.29999947249888L143.01559999999998,159.29999947249888L143.53640000000001,159.29999947249888L143.6148,159.29999947249888L143.8472,159.29999947249888L144.1244,159.29999947249888L144.3008,159.29999947249888L144.31480000000002,159.29999947249888L144.3848,159.29999947249888L144.508,159.29999947249888L144.6312,159.29999947249888L144.96159999999998,159.29999947249888L145.3536,159.29999947249888L145.5104,159.29999947249888L145.6336,159.29999947249888L145.74280000000002,159.29999947249888L145.9304,159.29999947249888L145.95839999999998,159.29999947249888L145.9668,159.29999947249888L146.804,159.29999947249888L146.8908,159.29999947249888L147.09799999999998,159.29999947249888L147.994,159.29999947249888L148.0332,159.29999947249888L148.12,159.29999947249888L148.2628,159.29999947249888L148.7864,159.29999947249888L149.0468,159.29999947249888L149.0552,159.29999947249888L149.2288,159.29999947249888L149.9512,159.29999947249888L150.11079999999998,159.29999947249888L150.57559999999998,159.29999947249888L150.86399999999998,159.29999947249888L151.70399999999998,159.29999947249888L151.914,159.29999947249888L151.9924,159.29999947249888L152.1772,159.29999947249888L152.2164,159.29999947249888L152.3564,159.29999947249888L152.4964,159.29999947249888L152.5216,159.29999947249888L152.55519999999999,159.29999947249888L152.66160000000002,159.29999947249888L152.94719999999998,159.29999947249888L153.1908,159.29999947249888L153.22719999999998,159.29999947249888L153.244,159.29999947249888L153.3308,159.29999947249888L153.93280000000001,159.29999947249888L154.0392,159.29999947249888L154.126,159.29999947249888L155.07799999999997,159.29999947249888L155.1956,159.29999947249888L155.484,159.29999947249888L155.5988,159.29999947249888L156.1196,159.29999947249888L156.73,159.29999947249888L157.5672,159.29999947249888L158.17759999999998,159.29999947249888L158.2112,159.29999947249888L158.508,159.29999947249888L158.8216,159.29999947249888L159.24720000000002,159.29999947249888L159.292,159.29999947249888L159.348,159.29999947249888L159.64759999999998,159.29999947249888L159.6896,159.29999947249888L159.72879999999998,159.29999947249888L159.7764,159.29999947249888L159.7876,159.29999947249888L159.83239999999998,159.29999947249888L159.9136,159.29999947249888L160.04520000000002,159.29999947249888L160.0984,159.29999947249888L160.4512,159.29999947249888L160.5744,159.29999947249888L160.88520000000003,159.29999947249888L161.12879999999998,159.29999947249888L161.3108,159.29999947249888L161.35000000000002,159.29999947249888L161.7756,159.29999947249888L162.3972,159.29999947249888L162.9292,159.29999947249888L162.95440000000002,159.29999947249888L163.0916,159.29999947249888L163.478,159.29999947249888L163.82799999999997,159.29999947249888L164.178,159.29999947249888L164.3488,159.29999947249888L164.4076,159.29999947249888L164.7604,159.29999947249888L165.4604,159.29999947249888L165.494,159.29999947249888L165.662,159.29999947249888L165.7628,159.29999947249888L165.9504,159.29999947249888L166.07920000000001,159.29999947249888L166.2108,159.29999947249888L166.55239999999998,159.29999947249888L166.6756,159.29999947249888L167.1348,159.29999947249888L167.1656,159.29999947249888L167.30560000000003,159.29999947249888L167.5884,159.29999947249888L167.61919999999998,159.29999947249888L167.89079999999998,159.29999947249888L167.93,159.29999947249888L168.028,159.29999947249888L168.47879999999998,159.29999947249888L168.7308,159.29999947249888L168.9016,159.29999947249888L169.23200000000003,159.29999947249888L169.414,159.29999947249888L169.6744,159.29999947249888L169.6884,159.29999947249888L169.7892,159.29999947249888L169.9516,159.29999947249888L170.10559999999998,159.29999947249888L170.1308,159.29999947249888L170.1364,159.29999947249888L170.2932,159.29999947249888L170.5172,159.29999947249888L171.06320000000002,159.29999947249888L172.1104,159.29999947249888L172.48,159.29999947249888L173.0316,159.29999947249888L173.404,159.29999947249888L173.4208,159.29999947249888L173.46,159.29999947249888L173.5188,159.29999947249888L173.63639999999998,159.29999947249888L174.2412,159.29999947249888L174.3364,159.29999947249888L174.5856,159.29999947249888L174.61919999999998,159.29999947249888L174.71720000000002,159.29999947249888L175.1092,159.29999947249888L175.1316,159.29999947249888L175.3948,159.29999947249888L175.4648,159.29999947249888L176.30759999999998,159.29999947249888L176.58200000000002,159.29999947249888L176.6296,159.29999947249888L177.1112,159.29999947249888L178.1444,159.29999947249888L178.668,159.29999947249888L179.14960000000002,159.29999947249888L179.31480000000002,159.29999947249888L179.6116,159.29999947249888L180.4824,159.29999947249888L180.84640000000002,159.29999947249888L180.85760000000002,159.29999947249888L180.894,159.29999947249888L181.3448,159.29999947249888L182.182,159.29999947249888L182.22119999999998,159.29999947249888L182.336,159.29999947249888L182.41439999999997,159.29999947249888L182.43959999999998,159.29999947249888L182.73080000000002,159.29999947249888L183.0276,159.29999947249888L183.3972,159.29999947249888L183.63240000000002,159.29999947249888L183.6408,159.29999947249888L183.6996,159.29999947249888L183.7612,159.29999947249888L184.0104,159.29999947249888L184.43599999999998,159.29999947249888L184.7496,159.29999947249888L184.83079999999998,159.29999947249888L185.1696,159.29999947249888L185.27040000000002,159.29999947249888L185.388,159.29999947249888L185.6148,159.29999947249888L185.6932,159.29999947249888L186.13559999999998,159.29999947249888L186.1468,159.29999947249888L186.1636,159.29999947249888L186.9308,159.29999947249888L187.0148,159.29999947249888L187.0204,159.29999947249888L187.4096,159.29999947249888L187.4852,159.29999947249888L187.78480000000002,159.29999947249888L188.4428,159.29999947249888L188.7536,159.29999947249888L188.86280000000002,159.29999947249888L189.238,159.29999947249888L189.7868,159.29999947249888L189.8176,159.29999947249888L190.11440000000002,159.29999947249888L190.2432,159.29999947249888L190.3048,159.29999947249888L190.3384,159.29999947249888L190.876,159.29999947249888L191.4276,159.29999947249888L191.5116,159.29999947249888L191.53400000000002,159.29999947249888L191.6516,159.29999947249888L192.122,159.29999947249888L192.234,159.29999947249888L192.44400000000002,159.29999947249888L192.5448,159.29999947249888L192.822,159.29999947249888L193.3596,159.29999947249888L193.9616,159.29999947249888L194.15200000000002,159.29999947249888L194.558,159.29999947249888L194.7484,159.29999947249888L194.754,159.29999947249888L195.7144,159.29999947249888L195.9216,159.29999947249888L196.0028,159.29999947249888L196.0392,159.29999947249888L196.35000000000002,159.29999947249888L196.5012,159.29999947249888L196.784,159.29999947249888L197.2068,159.29999947249888L198.6824,159.29999947249888L199.2984,159.29999947249888L199.4132,159.29999947249888L199.88080000000002,159.29999947249888L199.906,159.29999947249888L199.91439999999997,159.29999947249888L200.23080000000002,159.29999947249888L200.648,159.29999947249888L200.83,159.29999947249888L200.87759999999997,159.29999947249888L201.06240000000003,159.29999947249888L201.3312,159.29999947249888L201.3368,159.29999947249888L201.4348,159.29999947249888L201.5132,159.29999947249888L201.572,159.29999947249888L201.5748,159.29999947249888L201.74560000000002,159.29999947249888L201.8268,159.29999947249888L202.5632,159.29999947249888L202.68079999999998,159.29999947249888L202.9636,159.29999947249888L203.1624,159.29999947249888L203.168,159.29999947249888L203.54039999999998,159.29999947249888L203.896,159.29999947249888L203.93800000000002,159.29999947249888L204.3104,159.29999947249888L204.59879999999998,159.29999947249888L204.82000000000002,159.29999947249888L204.8508,159.29999947249888L204.91520000000003,159.29999947249888L205.0944,159.29999947249888L205.9904,159.29999947249888L206.14159999999998,159.29999947249888L206.3236,159.29999947249888L206.8444,159.29999947249888L206.934,159.29999947249888L207.1104,159.29999947249888L207.45479999999998,159.29999947249888L207.5584,159.29999947249888L208.59720000000002,159.29999947249888L208.87439999999998,159.29999947249888L208.9612,159.29999947249888L209.7032,159.29999947249888L209.7984,159.29999947249888L210.91,159.29999947249888L211.0416,159.29999947249888L211.1676,159.29999947249888L211.24599999999998,159.29999947249888L211.2544,159.29999947249888L211.5624,159.29999947249888L211.9152,159.29999947249888L212.0216,159.29999947249888L212.10840000000002,159.29999947249888L212.296,159.29999947249888L212.3548,159.29999947249888L212.4024,159.29999947249888L212.61239999999998,159.29999947249888L212.67680000000001,159.29999947249888L212.76360000000003,159.29999947249888L213.0884,159.29999947249888L213.1164,159.29999947249888L213.388,159.29999947249888L213.444,159.29999947249888L213.4832,159.29999947249888L213.6176,159.29999947249888L214.2252,159.29999947249888L214.5724,159.29999947249888L214.6256,159.29999947249888L214.6592,159.29999947249888L214.704,159.29999947249888L214.7096,159.29999947249888L214.75160000000002,159.29999947249888L214.8692,159.29999947249888L214.8776,159.29999947249888L214.984,159.29999947249888L215.852,159.29999947249888L216.1124,159.29999947249888L216.2636,159.29999947249888L216.3868,159.29999947249888L216.6808,159.29999947249888L216.7396,159.29999947249888L217.0308,159.29999947249888L217.0644,159.29999947249888L217.9352,159.29999947249888L218.00799999999998,159.29999947249888L218.03040000000001,159.29999947249888L218.1144,159.29999947249888L218.3832,159.29999947249888L218.5932,159.29999947249888L218.9264,159.29999947249888L219.27079999999998,159.29999947249888L219.43040000000002,159.29999947249888L219.6264,159.29999947249888L219.67680000000001,159.29999947249888L220.0436,159.29999947249888L220.13320000000002,159.29999947249888L220.1444,159.29999947249888L220.2592,159.29999947249888L220.7128,159.29999947249888L220.74360000000001,159.29999947249888L221.3848,159.29999947249888L221.3988,159.29999947249888L221.85520000000002,159.29999947249888L222.14079999999998,159.29999947249888L222.3956,159.29999947249888L222.488,159.29999947249888L222.68120000000002,159.29999947249888L222.992,159.29999947249888L223.08999999999997,159.29999947249888L223.398,159.29999947249888L223.50160000000002,159.29999947249888L224.15120000000002,159.29999947249888L224.54600000000002,159.29999947249888L224.9436,159.29999947249888L224.94920000000002,159.29999947249888L225.00799999999998,159.29999947249888L225.6464,159.29999947249888L225.6604,159.29999947249888L225.7836,159.29999947249888L225.82,159.29999947249888L226.07479999999998,159.29999947249888L226.45,159.29999947249888L226.66279999999998,159.29999947249888L226.6824,159.29999947249888L226.8364,159.29999947249888L227.0268,159.29999947249888L227.2452,159.29999947249888L227.3768,159.29999947249888L227.4244,159.29999947249888L227.5168,159.29999947249888L227.7968,159.29999947249888L228.7432,159.29999947249888L228.928,159.29999947249888L228.9504,159.29999947249888L229.0736,159.29999947249888L229.1324,159.29999947249888L229.36200000000002,159.29999947249888L229.3844,159.29999947249888L229.88559999999998,159.29999947249888L229.936,159.29999947249888L230.4092,159.29999947249888L231.1064,159.29999947249888L231.14000000000001,159.29999947249888L231.238,159.29999947249888L231.336,159.29999947249888L231.40879999999999,159.29999947249888L232.3608,159.29999947249888L232.7472,159.29999947249888L232.9712,159.29999947249888L233.07760000000002,159.29999947249888L233.6684,159.29999947249888L233.7776,159.29999947249888L233.982,159.29999947249888L234.32080000000002,159.29999947249888L234.7464,159.29999947249888L234.878,159.29999947249888L234.962,159.29999947249888L234.9816,159.29999947249888L235.0404,159.29999947249888L235.2952,159.29999947249888L235.3008,159.29999947249888L235.3932,159.29999947249888L235.62,159.29999947249888L235.7376,159.29999947249888L236.0568,159.29999947249888L236.3536,159.29999947249888L236.5496,159.29999947249888L236.8632,159.29999947249888L237.21040000000002,159.29999947249888L237.3168,159.29999947249888L237.538,159.29999947249888L237.5996,159.29999947249888L238.01399999999998,159.29999947249888L238.2716,159.29999947249888L238.27439999999999,159.29999947249888L238.308,159.29999947249888L238.40879999999999,159.29999947249888L238.51520000000002,159.29999947249888L238.57399999999998,159.29999947249888L239.0332,159.29999947249888L239.2376,159.29999947249888L239.274,159.29999947249888L239.3916,159.29999947249888L239.582,159.29999947249888L239.71359999999999,159.29999947249888L239.918,159.29999947249888L240.4808,159.29999947249888L240.68800000000002,159.29999947249888L240.814,159.29999947249888L241.41039999999998,159.29999947249888L241.41320000000002,159.29999947249888L241.6568,159.29999947249888L242.1608,159.29999947249888L242.1636,159.29999947249888L242.2868,159.29999947249888L242.4436,159.29999947249888L243.0204,159.29999947249888L243.404,159.29999947249888L243.4236,159.29999947249888L243.6336,159.29999947249888L243.6532,159.29999947249888L243.68959999999998,159.29999947249888L244.00599999999997,159.29999947249888L244.6948,159.29999947249888L245.0168,159.29999947249888L245.15400000000002,159.29999947249888L245.16240000000002,159.29999947249888L245.3052,159.29999947249888L245.58239999999998,159.29999947249888L245.588,159.29999947249888L245.8568,159.29999947249888L245.9744,159.29999947249888L246.26,159.29999947249888L246.5092,159.29999947249888L246.568,159.29999947249888L246.64919999999998,159.29999947249888L246.8032,159.29999947249888L246.92079999999999,159.29999947249888L247.0412,159.29999947249888L247.17000000000002,159.29999947249888L247.3212,159.29999947249888L247.3772,159.29999947249888L247.38559999999998,159.29999947249888L247.5844,159.29999947249888L247.618,159.29999947249888L247.8476,159.29999947249888L247.856,159.29999947249888L248.052,159.29999947249888L248.1864,159.29999947249888L248.486,159.29999947249888L248.51399999999998,159.29999947249888L248.5224,159.29999947249888L249.0264,159.29999947249888L249.368,159.29999947249888L249.5556,159.29999947249888L249.61440000000002,159.29999947249888L249.6172,159.29999947249888L249.6984,159.29999947249888L249.844,159.29999947249888L250.7512,159.29999947249888L250.8156,159.29999947249888L251.62199999999999,159.29999947249888L251.79,159.29999947249888L252.6972,159.29999947249888L252.8092,159.29999947249888L253.3244,159.29999947249888L253.3804,159.29999947249888L253.52599999999998,159.29999947249888L254.09439999999998,159.29999947249888L255.1976,159.29999947249888L255.68200000000002,159.29999947249888L255.71,159.29999947249888L255.83040000000003,159.29999947249888L255.8332,159.29999947249888L256.0236,159.29999947249888L256.27,159.29999947249888L256.522,159.29999947249888L256.8188,159.29999947249888L257.0596,159.29999947249888L257.348,159.29999947249888L257.9164,159.29999947249888L258.0452,159.29999947249888L258.3028,159.29999947249888L258.9496,159.29999947249888L258.9524,159.29999947249888L259.1596,159.29999947249888L259.5824,159.29999947249888L259.6944,159.29999947249888L259.7364,159.29999947249888" style="fill: none;" fill="none"></path></g></g></g></g></g></g><g transform="translate(50, 177)" clip-path="url(#clip_1)"><clipPath id="clip_1"><rect width="280" height="23"></rect></clipPath><g><g><line x1="0" y1="0" x2="0" y2="5" style="visibility: inherit;" fill="rgb(0, 0, 0)" stroke="rgb(204, 204, 204)" stroke-width="1px"></line><line x1="28" y1="0" x2="28" y2="5" style="visibility: inherit;" fill="rgb(0, 0, 0)" stroke="rgb(204, 204, 204)" stroke-width="1px"></line><line x1="56" y1="0" x2="56" y2="5" style="visibility: inherit;" fill="rgb(0, 0, 0)" stroke="rgb(204, 204, 204)" stroke-width="1px"></line><line x1="84" y1="0" x2="84" y2="5" style="visibility: inherit;" fill="rgb(0, 0, 0)" stroke="rgb(204, 204, 204)" stroke-width="1px"></line><line x1="112" y1="0" x2="112" y2="5" style="visibility: inherit;" fill="rgb(0, 0, 0)" stroke="rgb(204, 204, 204)" stroke-width="1px"></line><line x1="140" y1="0" x2="140" y2="5" style="visibility: inherit;" fill="rgb(0, 0, 0)" stroke="rgb(204, 204, 204)" stroke-width="1px"></line><line x1="168" y1="0" x2="168" y2="5" style="visibility: inherit;" fill="rgb(0, 0, 0)" stroke="rgb(204, 204, 204)" stroke-width="1px"></line><line x1="196" y1="0" x2="196" y2="5" style="visibility: inherit;" fill="rgb(0, 0, 0)" stroke="rgb(204, 204, 204)" stroke-width="1px"></line><line x1="224" y1="0" x2="224" y2="5" style="visibility: inherit;" fill="rgb(0, 0, 0)" stroke="rgb(204, 204, 204)" stroke-width="1px"></line><line x1="252" y1="0" x2="252" y2="5" style="visibility: inherit;" fill="rgb(0, 0, 0)" stroke="rgb(204, 204, 204)" stroke-width="1px"></line><line x1="280" y1="0" x2="280" y2="5" style="visibility: inherit;" fill="rgb(0, 0, 0)" stroke="rgb(204, 204, 204)" stroke-width="1px"></line></g><g transform="translate(0, 8)"><text x="0" y="0" dx="0em" dy="0.95em" style="text-anchor: middle; visibility: hidden; font-family: Roboto, sans-serif; font-size: 12px; font-weight: 200;" fill="rgb(33, 33, 33)" stroke="none" stroke-width="1px">-10k</text><text x="28" y="0" dx="0em" dy="0.95em" style="text-anchor: middle; visibility: inherit; font-family: Roboto, sans-serif; font-size: 12px; font-weight: 200;" fill="rgb(33, 33, 33)" stroke="none" stroke-width="1px">0</text><text x="56" y="0" dx="0em" dy="0.95em" style="text-anchor: middle; visibility: inherit; font-family: Roboto, sans-serif; font-size: 12px; font-weight: 200;" fill="rgb(33, 33, 33)" stroke="none" stroke-width="1px">10k</text><text x="84" y="0" dx="0em" dy="0.95em" style="text-anchor: middle; visibility: inherit; font-family: Roboto, sans-serif; font-size: 12px; font-weight: 200;" fill="rgb(33, 33, 33)" stroke="none" stroke-width="1px">20k</text><text x="112" y="0" dx="0em" dy="0.95em" style="text-anchor: middle; visibility: inherit; font-family: Roboto, sans-serif; font-size: 12px; font-weight: 200;" fill="rgb(33, 33, 33)" stroke="none" stroke-width="1px">30k</text><text x="140" y="0" dx="0em" dy="0.95em" style="text-anchor: middle; visibility: inherit; font-family: Roboto, sans-serif; font-size: 12px; font-weight: 200;" fill="rgb(33, 33, 33)" stroke="none" stroke-width="1px">40k</text><text x="168" y="0" dx="0em" dy="0.95em" style="text-anchor: middle; visibility: inherit; font-family: Roboto, sans-serif; font-size: 12px; font-weight: 200;" fill="rgb(33, 33, 33)" stroke="none" stroke-width="1px">50k</text><text x="196" y="0" dx="0em" dy="0.95em" style="text-anchor: middle; visibility: inherit; font-family: Roboto, sans-serif; font-size: 12px; font-weight: 200;" fill="rgb(33, 33, 33)" stroke="none" stroke-width="1px">60k</text><text x="224" y="0" dx="0em" dy="0.95em" style="text-anchor: middle; visibility: inherit; font-family: Roboto, sans-serif; font-size: 12px; font-weight: 200;" fill="rgb(33, 33, 33)" stroke="none" stroke-width="1px">70k</text><text x="252" y="0" dx="0em" dy="0.95em" style="text-anchor: middle; visibility: inherit; font-family: Roboto, sans-serif; font-size: 12px; font-weight: 200;" fill="rgb(33, 33, 33)" stroke="none" stroke-width="1px">80k</text><text x="280" y="0" dx="0em" dy="0.95em" style="text-anchor: middle; visibility: hidden; font-family: Roboto, sans-serif; font-size: 12px; font-weight: 200;" fill="rgb(33, 33, 33)" stroke="none" stroke-width="1px">90k</text></g><line x1="0" y1="0" x2="280" y2="0" fill="rgb(0, 0, 0)" stroke="rgb(204, 204, 204)" stroke-width="1px"></line></g></g></g></g></svg>