<svg viewBox="0 0 1498 400" xmlns="http://www.w3.org/2000/svg"><g><g><g><g><g><line x1="51.5625" y1="335.1111111111112" x2="46.5625" y2="335.1111111111112" style="visibility: inherit;" fill="rgb(0, 0, 0)" stroke="rgb(204, 204, 204)" stroke-width="1px"></line><line x1="51.5625" y1="293.2222222222223" x2="46.5625" y2="293.2222222222223" style="visibility: inherit;" fill="rgb(0, 0, 0)" stroke="rgb(204, 204, 204)" stroke-width="1px"></line><line x1="51.5625" y1="251.33333333333337" x2="46.5625" y2="251.33333333333337" style="visibility: inherit;" fill="rgb(0, 0, 0)" stroke="rgb(204, 204, 204)" stroke-width="1px"></line><line x1="51.5625" y1="209.44444444444454" x2="46.5625" y2="209.44444444444454" style="visibility: inherit;" fill="rgb(0, 0, 0)" stroke="rgb(204, 204, 204)" stroke-width="1px"></line><line x1="51.5625" y1="167.5555555555556" x2="46.5625" y2="167.5555555555556" style="visibility: inherit;" fill="rgb(0, 0, 0)" stroke="rgb(204, 204, 204)" stroke-width="1px"></line><line x1="51.5625" y1="125.66666666666669" x2="46.5625" y2="125.66666666666669" style="visibility: inherit;" fill="rgb(0, 0, 0)" stroke="rgb(204, 204, 204)" stroke-width="1px"></line><line x1="51.5625" y1="83.77777777777786" x2="46.5625" y2="83.77777777777786" style="visibility: inherit;" fill="rgb(0, 0, 0)" stroke="rgb(204, 204, 204)" stroke-width="1px"></line><line x1="51.5625" y1="41.88888888888891" x2="46.5625" y2="41.88888888888891" style="visibility: inherit;" fill="rgb(0, 0, 0)" stroke="rgb(204, 204, 204)" stroke-width="1px"></line><line x1="51.5625" y1="0" x2="46.5625" y2="0" style="visibility: inherit;" fill="rgb(0, 0, 0)" stroke="rgb(204, 204, 204)" stroke-width="1px"></line></g><g transform="translate(41.5625, 0)"><text x="0" y="335.1111111111112" dx="0em" dy="0.3em" style="text-anchor: end; visibility: inherit; font-family: Roboto, sans-serif; font-size: 12px; font-weight: 200;" fill="rgb(33, 33, 33)" stroke="none" stroke-width="1px">0.3</text><text x="0" y="293.2222222222223" dx="0em" dy="0.3em" style="text-anchor: end; visibility: inherit; font-family: Roboto, sans-serif; font-size: 12px; font-weight: 200;" fill="rgb(33, 33, 33)" stroke="none" stroke-width="1px">0.32</text><text x="0" y="251.33333333333337" dx="0em" dy="0.3em" style="text-anchor: end; visibility: inherit; font-family: Roboto, sans-serif; font-size: 12px; font-weight: 200;" fill="rgb(33, 33, 33)" stroke="none" stroke-width="1px">0.34</text><text x="0" y="209.44444444444454" dx="0em" dy="0.3em" style="text-anchor: end; visibility: inherit; font-family: Roboto, sans-serif; font-size: 12px; font-weight: 200;" fill="rgb(33, 33, 33)" stroke="none" stroke-width="1px">0.36</text><text x="0" y="167.5555555555556" dx="0em" dy="0.3em" style="text-anchor: end; visibility: inherit; font-family: Roboto, sans-serif; font-size: 12px; font-weight: 200;" fill="rgb(33, 33, 33)" stroke="none" stroke-width="1px">0.38</text><text x="0" y="125.66666666666669" dx="0em" dy="0.3em" style="text-anchor: end; visibility: inherit; font-family: Roboto, sans-serif; font-size: 12px; font-weight: 200;" fill="rgb(33, 33, 33)" stroke="none" stroke-width="1px">0.4</text><text x="0" y="83.77777777777786" dx="0em" dy="0.3em" style="text-anchor: end; visibility: inherit; font-family: Roboto, sans-serif; font-size: 12px; font-weight: 200;" fill="rgb(33, 33, 33)" stroke="none" stroke-width="1px">0.42</text><text x="0" y="41.88888888888891" dx="0em" dy="0.3em" style="text-anchor: end; visibility: inherit; font-family: Roboto, sans-serif; font-size: 12px; font-weight: 200;" fill="rgb(33, 33, 33)" stroke="none" stroke-width="1px">0.44</text><text x="0" y="0" dx="0em" dy="0.3em" style="text-anchor: end; visibility: hidden; font-family: Roboto, sans-serif; font-size: 12px; font-weight: 200;" fill="rgb(33, 33, 33)" stroke="none" stroke-width="1px">0.46</text></g><line x1="51.5625" y1="0" x2="51.5625" y2="377" fill="rgb(0, 0, 0)" stroke="rgb(204, 204, 204)" stroke-width="1px"></line></g></g><g transform="translate(51, 0)" clip-path="url(#clip_0)"><clipPath id="clip_0"><rect width="1446" height="377"></rect></clipPath><g><g><g><line x1="0" y1="0" x2="0" y2="377" fill="rgb(0, 0, 0)" stroke="rgb(66, 66, 66)" stroke-width="1px" opacity="0.25"></line><line x1="144.64375" y1="0" x2="144.64375" y2="377" fill="rgb(0, 0, 0)" stroke="rgb(66, 66, 66)" stroke-width="1px" opacity="0.25"></line><line x1="289.2875" y1="0" x2="289.2875" y2="377" fill="rgb(0, 0, 0)" stroke="rgb(66, 66, 66)" stroke-width="1px" opacity="0.25"></line><line x1="433.93125" y1="0" x2="433.93125" y2="377" fill="rgb(0, 0, 0)" stroke="rgb(66, 66, 66)" stroke-width="1px" opacity="0.25"></line><line x1="578.575" y1="0" x2="578.575" y2="377" fill="rgb(0, 0, 0)" stroke="rgb(66, 66, 66)" stroke-width="1px" opacity="0.25"></line><line x1="723.21875" y1="0" x2="723.21875" y2="377" fill="rgb(0, 0, 0)" stroke="rgb(66, 66, 66)" stroke-width="1px" opacity="0.25"></line><line x1="867.8625" y1="0" x2="867.8625" y2="377" fill="rgb(0, 0, 0)" stroke="rgb(66, 66, 66)" stroke-width="1px" opacity="0.25"></line><line x1="1012.5062499999999" y1="0" x2="1012.5062499999999" y2="377" fill="rgb(0, 0, 0)" stroke="rgb(66, 66, 66)" stroke-width="1px" opacity="0.25"></line><line x1="1157.15" y1="0" x2="1157.15" y2="377" fill="rgb(0, 0, 0)" stroke="rgb(66, 66, 66)" stroke-width="1px" opacity="0.25"></line><line x1="1301.79375" y1="0" x2="1301.79375" y2="377" fill="rgb(0, 0, 0)" stroke="rgb(66, 66, 66)" stroke-width="1px" opacity="0.25"></line><line x1="1446.4375" y1="0" x2="1446.4375" y2="377" fill="rgb(0, 0, 0)" stroke="rgb(66, 66, 66)" stroke-width="1px" opacity="0.25"></line></g><g><line x1="0" y1="335.1111111111112" x2="1446.4375" y2="335.1111111111112" fill="rgb(0, 0, 0)" stroke="rgb(66, 66, 66)" stroke-width="1px" opacity="0.25"></line><line x1="0" y1="293.2222222222223" x2="1446.4375" y2="293.2222222222223" fill="rgb(0, 0, 0)" stroke="rgb(66, 66, 66)" stroke-width="1px" opacity="0.25"></line><line x1="0" y1="251.33333333333337" x2="1446.4375" y2="251.33333333333337" fill="rgb(0, 0, 0)" stroke="rgb(66, 66, 66)" stroke-width="1px" opacity="0.25"></line><line x1="0" y1="209.44444444444454" x2="1446.4375" y2="209.44444444444454" fill="rgb(0, 0, 0)" stroke="rgb(66, 66, 66)" stroke-width="1px" opacity="0.25"></line><line x1="0" y1="167.5555555555556" x2="1446.4375" y2="167.5555555555556" fill="rgb(0, 0, 0)" stroke="rgb(66, 66, 66)" stroke-width="1px" opacity="0.25"></line><line x1="0" y1="125.66666666666669" x2="1446.4375" y2="125.66666666666669" fill="rgb(0, 0, 0)" stroke="rgb(66, 66, 66)" stroke-width="1px" opacity="0.25"></line><line x1="0" y1="83.77777777777786" x2="1446.4375" y2="83.77777777777786" fill="rgb(0, 0, 0)" stroke="rgb(66, 66, 66)" stroke-width="1px" opacity="0.25"></line><line x1="0" y1="41.88888888888891" x2="1446.4375" y2="41.88888888888891" fill="rgb(0, 0, 0)" stroke="rgb(66, 66, 66)" stroke-width="1px" opacity="0.25"></line><line x1="0" y1="0" x2="1446.4375" y2="0" fill="rgb(0, 0, 0)" stroke="rgb(66, 66, 66)" stroke-width="1px" opacity="0.25"></line></g></g></g><g><g><line x1="0" y1="963.4444444444446" x2="1446.4375" y2="963.4444444444446" fill="rgb(0, 0, 0)" stroke="rgb(153, 153, 153)" stroke-width="1.5px"></line></g></g><g><g><line x1="144.64375" y1="0" x2="144.64375" y2="377" fill="rgb(0, 0, 0)" stroke="rgb(153, 153, 153)" stroke-width="1.5px"></line></g></g><g><g><g><g><g><path stroke="rgb(255, 112, 67)" stroke-width="2px" d="M145.222325,544.5555493136249L147.24733750000001,319.82974720481604L150.4295,405.91522755368777L151.44200625,319.82974720481593L151.58665000000002,268.9047258392965L153.6116625,284.3223703397385L153.75630625,250.63881956428588L154.33488125,267.30133457673446L154.91345625,202.04661186378314L155.78131875,3.1238893036003774L156.5045375,130.81852068404663L157.51704375,129.97124867934127L158.96348125,95.7909919246924L159.54205625,100.45680812380142L160.12063125,104.31608396915028L162.14564375,170.5784441250581L163.15815,163.91528638142165L163.4474375,189.0039444732407L165.47245,210.19234543696552L165.90638124999998,228.1460770296075L167.35281874999998,153.7875975616942L167.78675,179.47815826310375L168.07603749999998,201.40417018777725L168.365325,190.78589987837583L169.522475,123.2124742285795L172.27070625,94.41812809222263L174.00643125000002,127.7970491160007L174.29571875,156.47023478809825L175.45286875,123.31853095529927L177.76716875,152.48565229578566L179.936825,120.00423419794416L180.08146875,120.78155164931205L181.9618375,178.8816145329105L182.10648125000003,142.9102338383411L183.84220624999998,226.51990299208722L184.27613750000003,212.73241483116928L185.4332875,200.83821844455673L185.86721875,219.17024255789588L187.31365625,149.25117515449782L189.194025,174.6013262802877L190.35117499999998,253.59663555244876L190.78510624999998,121.97665268986536L191.2190375,65.40423408009086L194.6904875,130.67384351232067L196.42621250000002,129.9919176604068L197.294075,157.92167509890788L197.5833625,210.5585125561516L199.3190875,227.51286596922677L200.4762375,242.15757020571021L201.05481250000003,226.30419334152327L201.3441,127.1067876186809L202.7905375,69.913455634995L203.079825,-36.48782716937084L204.67090624999997,-14.42658823309128L205.6834125,4.632235331093765L207.708425,-64.3796292879384L211.32451875,-11.716197220886837L211.90309374999998,6.970375917421621L213.2048875,-33.86055400475752L213.34953124999998,16.324611800500204L214.07274999999998,59.68332166015246L214.21739375,40.171154333818464L215.08525625,51.799292928218556L218.4120625,90.33184586542703L218.70135,123.6234267816293L218.84599375,152.38694599544436L218.99063750000002,148.75285558421098L219.42456875,88.64237000019733L219.71385625000002,122.16301551861507L221.73886875,208.09483867177948L221.88351250000002,253.85441259271522L222.17279999999997,321.8753901323229L222.4620875,295.19060273503743L222.751375,300.61985867232966L223.32995000000003,362.2802462446915L223.61923749999997,273.1310433365846L224.4871,224.59103890351895L225.06567499999997,211.13722565142962L225.9335375,256.4823999350917L226.22282500000003,238.69136282821472L226.8014,223.3199310244059L229.9835625,295.4927097427065L230.56213749999998,272.3962860692071L230.85142499999998,223.95646820892384L233.45501249999998,182.10450238070808L234.75680625,202.91344432815598L235.480025,220.89235836866595L235.62466874999998,236.42613128946545L236.78181875,192.87833681714568L237.64968125000001,183.73753658261745L237.794325,204.3243614987776L239.81933750000002,222.1113726046565L241.12113125,123.54148339763704L242.27828125000002,152.31496936164405L242.422925,91.72186814278636L244.737225,96.33836143849656L245.0265125,157.2959263045551L248.93189375,181.478797405223L249.51046874999997,202.37279566274609L250.37833125,248.90966360896653L252.2587,260.6330600010519L255.151575,270.7620737417048L256.74265625,251.02909300337535L256.88730000000004,177.01089542057582L257.7551625,84.57473750980097L258.623025,90.16323884921206L260.937325,123.47614954160358L261.08196875,180.74295305018717L261.37125625,144.76813086801042L263.10698125,199.13922341929342L264.98735,160.66250902926404L268.60344375,212.87196511907354L269.9052375,172.5275983417821L270.62845625,166.15450969822652L272.7981125,160.6481611705118L274.38919375,155.89067608759308L274.96776875,151.7802090095635L279.1624375,148.22876547923738L279.451725,145.1603182877663L280.8981625,199.47807055087435L281.91066875,75.50193678565981L283.93568125,110.80878150764372L289.14285624999997,141.3138952436702L289.57678749999997,196.15476067180788L289.86607499999997,215.0528210772539L291.45715625,231.38074523173626L292.46966249999997,302.45696385251335L293.0482375,306.89792450549004L293.337525,282.25047163890116L294.63931875,203.9861782007998L297.38755000000003,193.33472290122035L299.4125625,212.61630835397506L299.55720625000004,143.82226124464924L299.84649375000004,226.80643345741169L300.42506875,213.0514234522225L301.72686250000004,201.16709481378302L303.4625875,162.41459209118622L304.0411625,100.44797848406397L304.33045,132.3621611565592L304.76438125,131.45157220736866L305.05366875,73.69592933207772L305.34295625,80.76394791617996L306.78939375,115.35515873369975L307.36796875,116.75752211543036L308.380475,61.000270071884415L308.6697625,69.79489831402269L310.4054875,48.909014359273016L311.12870625,59.348053377978744L311.27335,39.88294033643725L313.009075,51.54952542180028L314.4555125,118.59834468229583L314.7448,176.5285245205231L314.88944375,112.64241616431734L315.90195,85.92926978531241L317.20374375,91.33355406387486L317.3483875,124.48729842935676L320.2412625,67.67879682557113L320.8198375,161.01848003844984L321.83234375,99.24173773657097L324.8698625,159.80441611376648L325.59308125,98.19278650646385L325.737725,158.89812225027006L326.0270125,211.34753233240352L326.46094375,114.24160466171355L327.03951875,87.31096864936119L327.90738125,-21.41043759570164L332.3913375,-19.419793815123267L333.5484875,0.311963112748059L334.85028125,-11.124241648440137L335.86278749999997,92.93265479189925L336.29671875,125.86892145586657L336.4413625,68.87251912417922L339.18959375,19.627627509663842L341.35925,5.564492390526355L341.937825,50.38282914104053L343.52890625,32.136986600037304L343.67355000000003,16.372578644621637L344.252125,2.7521301711508825L349.60394375,19.468505436761625L352.6414625,33.911453666242984L352.78610625,103.35905067436757L355.38969375,106.39288475151804L355.5343375,80.52967464751136L355.96826875,58.18386111765529L357.8486375,95.84596372117925L358.137925,99.90157762396264L359.72900625,188.85896264269527L360.1629375,180.26480869214666L360.7415125,144.35501693222386L361.89866249999994,255.75117907392064L362.91116875,238.05968368872414L363.0558125,194.28978892926978L363.48974375000006,156.4725998571036L363.923675,152.28299124539822L365.65940000000006,234.1165040115852L367.10583750000006,276.3362141726682L368.55227500000007,369.7829334896402L368.98620625,336.58311950390737L371.01121875,307.89848022023506L371.44514999999996,311.59939462578393L372.16836874999996,314.79698467217816L372.6023,289.07525972562206L373.90409375,295.3361321184385L375.495175,215.2921891368846L376.21839375,203.10311638312936L376.50768124999996,192.57175752388494L379.97913124999997,154.9882207228577L381.13628125,122.51604492677056L381.42556874999997,208.39786239228027L382.87200624999997,197.1464180757914L383.8845125,130.45627620403988L386.19881250000003,101.3204448625123L387.21131875,76.14708658343258L387.50060625000003,111.36619052358677L388.36846875000003,56.34215959893547L389.6702625,151.22362546902963L390.8274125,147.74787737410315L391.1167,116.26038827344713L391.55063125,174.5085301749117L391.98456250000004,281.8038145155685L392.12920625000004,232.08471796367328L393.1417125,246.09630403611447L393.86493125,286.686761393856L394.87743750000004,350.24136141984053L397.04709375000004,291.2147584889643L398.3488875,240.21577355668728L401.38640625000005,196.15265057519989L401.67569375,129.59766108352974L403.41141875,186.03193388282276L403.84535,149.33781309698102L405.00250000000005,146.1185354846531L407.75073125,114.8526368809624L411.80075625,59.35444925170852L412.37933125,68.37290912233757L413.68112499999995,104.64930119720043L414.40434374999995,192.96099580992993L414.69363125,183.80896534864084L417.73115,90.44828279016936L419.32223124999996,152.2068710373594L419.7561625,120.11295879850067L420.624025,120.868261370766L420.76866874999996,121.52084279320333L422.93832499999996,-20.337540591007237L423.08296874999996,28.003472644870445L424.67405,98.25455507182109L425.25262499999997,130.46704329755406L425.97584374999997,215.26752498463546L426.26513125,231.56624930222577L428.14549999999997,245.64834711262367L428.29014374999997,172.36194289186398L428.72407499999997,109.04248964512753L429.01336249999997,111.30337602225165L430.60444375000003,170.22567158987846L430.89373125,164.16564522251647L432.05088125000003,130.44533969447642L432.19552500000003,158.27988121152825L444.0563125,153.84448233562182L445.35810625,150.0122977068387L446.80454375,146.70129018757007L448.395625,143.840579690922L448.82955625000005,169.85336856845723L449.69741875,249.2973100186958L450.4206375,232.48354082501464L450.56528125,274.9253339794657L451.14385625,254.62615352711973L451.2885,322.5409962229802L452.30100624999994,295.76608570551633L454.03673125,272.6325630184275L458.37604375,224.16075667014363L460.97963124999995,125.31223049194787L461.9921375,182.32932185169597L464.16179375,203.10764179536602L465.02965625,249.54455721784925L466.47609375,232.69716240508328L468.067175,246.62545603349264L468.50110625,258.65950172843833L469.224325,183.60358047992767L471.10469374999997,175.72415850351896L474.57614375,168.9163379159018L478.04759375000003,106.06548694589613L479.63867500000003,137.21568843675504L480.07260625,135.64501977821783L480.795825,162.77240480388085L481.952975,186.21046546605376L483.3994125,234.94539686932353L484.84585,163.1145938816525L485.85835625,186.50611682924844L490.19766875,206.71639265597133L490.77624375,224.17807097025985L490.9208875,267.7494080249576L491.4994625,276.910596249064L496.995925,227.85697738141357L497.71914375,213.95909342640272L499.5995125,230.43576443591266L500.7566625,244.6716081881292L501.19059374999995,228.4869344434051L504.08346874999995,271.47226606575504L505.24061875,280.1271455963131L505.9638375,259.1205187640759L506.68705625,297.9396829188146L508.71206875,302.99499375735644L509.00135624999996,278.8783395752174L510.30315,258.0415503618493L510.59243749999996,268.52300722813845L511.7495875,306.0634329517647L515.7996125,310.0139137858254L517.3906937500001,341.91157621760607L517.5353375,312.5022668208731L518.981775,344.06151323988746L519.56035,371.32870214591577L520.57285625,337.91866362293274L521.5853625,337.5368330857146L523.46573125,337.20693150155813L524.62288125,279.9530110395684L524.767525,315.9389562448402L525.78003125,318.54636591104264L526.35860625,235.34583113369783L526.50325,163.46056908607193L526.93718125,158.32059665922765L529.6854125,210.84855022022566L530.8425625,256.232702096928L530.98720625,266.96016232724645L531.4211375,247.74424521960245L532.43364375,288.1105825763895L532.867575,266.0182083148619L533.1568625,303.8992866906937L533.59079375,251.17520592298158L534.16936875,177.13714890401317L535.4711625,198.62160436856806L536.339025,245.66862088109585L537.06224375,229.3483534101283L537.64081875,215.24764231521232L539.37654375,174.58018518256566L539.5211875,224.89683470438973L540.0997625,268.3704198912458L540.82298125,277.44715050153707L540.967625,256.80500300218955L541.11226875,238.97018756275324L541.5462,280.5297967608718L542.84799375,259.4684093702548L542.9926375,298.2402604025532L543.13728125,274.7702499566674L543.8605,282.9766036780613L544.58371875,233.0980078000672L545.01765,246.97178645475879L545.74086875,230.47428846577304L546.4640875,273.18933994108096L547.47659375,253.1262546779554L551.381975,178.8228550283104L554.5641375,200.07805445996092L555.1427125,246.92699376005916L556.010575,201.95114483091345L557.02308125,220.06089684940983L558.46951875,207.22327984675164L558.6141625,167.64713600981565L561.36239375,133.45334773470302L562.80883125,75.42546342934043L563.09811875,-3.1950628681061017L566.7142124999999,99.78346525750513L567.14814375,131.78802169798507L569.0285125,130.9555157159205L571.6321,130.23623054741685L572.06603125,101.13032541519037L573.0785375,132.95170887422515L573.51246875,46.50761319627426L574.6696187499999,57.27324277044237L576.5499875,9.60585274021931L577.996425,-3.0943210102283327L578.4303562499999,42.90161436266341L578.8642875,111.12654951599414L581.3232312499999,141.5884464973196L583.4928874999999,224.87641734923287L585.37325625,268.3527792963902L590.58043125,248.94746628094265L590.725075,232.18127583559593L592.4608000000001,246.17973003745553L593.47330625,258.27439446786224L593.61795,297.208631526886L593.76259375,245.39447986145177L594.6304562500001,257.5959383157951L595.20903125,239.65355567370833L595.78760625,167.18244308864104L595.93225,161.53629579744728L596.0768937500001,99.68913055555147L596.8001125000001,131.70651651549716L597.0894,159.3695379848903L599.54834375,126.3015030411674L603.59836875,97.73072084979086L604.3215875,158.49889752087228L606.0573125,182.51815517353432L606.3466000000001,174.78635103879517L607.35910625,196.59051501301977L608.082325,129.9759759578061L609.81805,129.38990819640588L609.96269375,214.33688025724345L610.396625,316.2155089867028L610.6859125,404.2386442089557L617.339525,437.9448461820919L621.6788375,366.99056932354966L622.8359875,334.1705168644084L627.753875,248.84509755740595L630.068175,260.57727200509936L631.36996875,213.74498523462807L632.382475,173.28188946494083L632.6717625,166.80621746657036L633.10569375,246.66457146666548L633.39498125,287.177744453852L634.1182,322.18112591478115L634.26284375,266.97071501259313L635.41999375,276.2378054863811L637.011075,227.27568616245554L639.0360875,241.94130055986233L639.6146625,226.12794865258243L640.1932375,297.91854721138L641.3503875,359.94562436618105L642.07360625,385.05257415903344L645.25576875,349.77608904226634L646.268275,290.8127631547403L648.2932875,296.83733508119633L648.43793125,273.5581224790151L648.582575,281.92932553736966L648.72721875,346.1309368398361L649.59508125,344.6322371451191L649.88436875,371.821807600036L650.896875,395.31359647308415L651.33080625,387.12605506824536L652.9218875,323.0831338011862L654.6576125,296.23449257308636L657.2612,273.0372665520081L658.1290625,224.51042052315717L659.2862124999999,211.0676683008692L660.4433625,256.422020118604L660.8772937499999,238.63929035133538L661.8898,194.79056908577596L663.48088125,185.38971665897185L663.6255249999999,205.75182290885243L665.36125,194.86023996211L667.2416187499999,156.96546954948522L667.3862624999999,238.16216526630396L667.53090625,194.37833301230893L667.67555,213.51798743813563L669.7005625,258.5390958532022L673.1720124999999,183.4995498037237L673.60594375,232.60316573707027L673.8952312499999,189.57535741905087L674.18451875,180.8837737789215L674.6184499999999,173.37424551384962L675.1970249999999,109.91711911052319L675.63095625,169.02794561814508L675.7756,134.6463672362995L678.3791875,133.4251262610243L679.825625,75.40108007608201L681.5613500000001,110.7216409012355L682.2845687500001,27.30083446761121L684.4542250000001,-16.29030803342684L686.33459375,31.50028157461991L686.4792375000001,129.76024285602037L686.768525,129.20351479646308L686.91316875,128.72250175300547L687.3471000000001,99.82246373681905L687.49174375,160.30616337526467L687.6363875,241.04852473177743L688.6488937500001,282.3254800749087L688.93818125,232.53543700694325L691.397125,189.51683979622123L691.6864125000001,237.80210429058812L691.83105625,222.55168307592965L692.4096312500001,237.8597618931039L692.8435625,222.60149924450317L696.17036875,152.44946633380786L697.61680625,120.32256113463225L701.2329,121.04935778918374L701.5221875,93.19286735207693L702.968625,126.09374510769514L704.27041875,154.5201034885492L704.70435,65.14270614305013L709.0436625,44.88952032981754L710.34545625,55.8752105338238L710.92403125,93.8512896167245L711.79189375,98.17817919771143L713.23833125,73.43216904904484L713.52761875,109.0205017738754L713.96155,25.83105026157205L716.42049375,39.40869239485967L716.99906875,79.6242179446594L718.3008625,114.37043201968642L719.60265625,115.90671823387055L720.47051875,88.74962677628632L721.1937375,65.28589975693359L724.3759,45.01323961221287L724.954475,27.497661247174186L725.2437624999999,-16.12024969588448L726.54555625,88.61610383830457L727.268775,93.65497868515662L728.1366374999999,98.0085665528368L729.0045,130.25450921715162L730.01700625,186.5994506702721L735.3688249999999,92.85926210805879L736.525975,68.836624683585L738.98491875,48.08106594883972L739.8527812499999,30.14826320201978L740.72064375,100.10765411319811L741.1545749999999,160.5525678604562L744.3367374999999,41.87030412471265L745.7831749999999,81.7510504792525L747.37425625,144.6924623207272L748.82069375,85.1360584316653L748.9653375,62.1637767071811L749.39926875,127.76905778165741L750.99035,155.9675736388527L753.16000625,151.84664859283023L755.18501875,119.8017266064276L756.05288125,149.08379950345412L756.34216875,202.86795747763736L757.3546749999999,163.88413748290088L758.8011124999999,130.20211700744866L759.23504375,101.1008513166579L759.668975,161.41069024424547L759.8136187499999,213.5183910776811L760.3921937499999,173.08611211333871L763.719,223.60595557257767L763.86364375,181.80176783692934L766.3225875,174.16739237996842L769.2154625000001,196.05573473179348L769.93868125,186.482819777131L770.6619000000001,149.72737850966345L771.5297625,146.4551200012107L777.6048,115.14344590326822L778.0387312500001,145.0590449759245L780.35303125,199.3905695658518L781.51018125,160.87967432711815L782.08875625,156.09070358749148L782.5226875000001,151.95303286845405L784.2584125000001,148.3780853672058L784.5477,116.80488797948811L786.13878125,174.9789779209307L787.29593125,196.7569446391848L788.8870125,215.57310788375636L790.6227375,203.34583018042693L793.9495437500001,249.75035198254196L794.81740625,318.3283036884649L795.3959812500001,263.64187660905594L797.5656375,187.90835237678144L798.4335000000001,122.47458744009622L798.86743125,179.8775982548961L799.15671875,229.47379959888332L800.60315625,129.90269958237886L801.1817312499999,100.84215466139759L801.76030625,47.24939261400458L801.90495,86.39858293400064L804.5085375,91.73904062383805L804.797825,67.86875332121832L805.3764,18.760373856089664L806.2442625,90.26851771831446L807.4014125,152.05155401527668L808.84785,205.432097375852L810.8728625,194.5839971015976L811.3067937499999,156.72679571800256L811.740725,152.50261646921567L817.0925437499999,205.82181533605527L817.8157625,251.88960315700484L818.3943375,291.69217183430516L818.5389812499999,297.5971441803404L818.9729125,359.6679321473628L819.69613125,327.84375834418296L821.2872125,328.8321149248748L822.4443625,358.17050200174486L823.0229374999999,355.03442144500826L823.312225,295.3559623507094L824.1800875,329.24710617766596L825.3372375,358.52905444415643L825.48188125,355.3442107552518L826.34974375,381.07695279919056L826.783675,346.3411521873622L828.8086874999999,344.8138632053816L829.82119375,315.00984277831117L833.0033562499999,346.2280588671138L834.0158625,287.74726508340854L834.883725,265.7043020009264L835.4623,218.17473915102258L835.60694375,177.10919684870572L837.4873124999999,198.59745379278237L839.512325,217.16330779246474L839.94625625,261.6886526393425L840.3801874999999,271.6741035958925L840.669475,280.3015332223519L840.9587625,344.7245242796607L843.2730624999999,400.3859885531756L843.56235,391.50860182544443L843.8516375,326.8696541994063L843.99628125,271.02160345050925L844.140925,251.25333035010152L845.15343125,262.6579851379884L845.298075,300.99605386587507L847.9016625,305.6356982556167L850.7945374999999,252.6754655150751L852.67490625,320.85560178057364L854.5552749999999,322.7943476539163L854.8445624999999,267.5005385952059L857.5927937499999,248.21113031511936L858.17136875,288.51397129891615L859.183875,266.366736171125L859.7624500000001,218.74708227407422L860.48566875,263.0570337914531L864.969625,244.37194216467694L866.4160625,199.74358025250314L866.56070625,189.66911830702418L871.18930625,237.9336729239219L874.6607562500001,279.63424811292157L876.39648125,344.14798994511295L876.68576875,314.43452828143904L877.4089875000001,317.246540150664L879.28935625,234.2227816767307L879.434,276.4280380753483L880.59115,255.9244898659624L880.8804375,209.7249814664138L881.6036562500001,255.2619386936345L886.955475,180.66808601785718L887.5340500000001,116.2189973059856L888.112625,117.50387864123306L889.12513125,204.0673507215741L889.70370625,250.37374573009308L889.84835,176.4446872973575L890.1376374999999,169.5388747937783L890.2822812500001,135.08781004404662L892.01800625,76.83763886461337L894.91088125,140.447274685679L896.5019625,81.46821631498365L896.79125,58.99476111836808L897.5144687500001,68.06213857513146L897.80375625,18.92745871547052L898.526975,33.443989299027976L899.3948375,74.47071446986082L900.4073437500001,109.91780501746044L902.2877125,55.09075452164278L904.45736875,121.65796661335233L904.6020124999999,122.20314812279791L905.1805875,208.12751955364618L905.7591625,168.42839911657245L906.1930937499999,219.58169154337162L909.2306125000001,320.7470259379175L910.5324062499999,322.7005381258614L910.82169375,295.90392990960567L913.8592125,301.23610315739995L914.00385625,334.3275478346466L914.4377875,248.9807723156918L914.7270749999999,203.72560950297992L915.30565,193.10959157943603L915.45029375,183.9373520934942L916.1735124999999,176.01253717764044L920.2235375,197.64993983698204L921.0914,216.34465573465314L921.3806875,204.0124475236018L924.70749375,221.84186237589265L926.0092875,208.76203406163265L926.15393125,254.42995213590362L928.17894375,322.3714782209695L929.1914499999999,381.0729567584664L929.770025,374.8221423548157L932.2289687499999,369.42143871006147L932.51825625,364.75523076099387L933.241475,360.72362709299944L933.5307624999999,328.755878777213L933.96469375,329.62018697901266L934.25398125,330.3669492653677L939.6057999999999,331.01215188077833L940.7629499999999,331.56960694049314L941.48616875,303.5668053654475L941.6308125,307.8568275512473L942.6433187499999,340.0478537109308L943.22189375,282.40756782846637L943.5111812499999,232.60636082601715L946.6933437499999,275.0314504603318L947.70585,254.71783816658814L949.87550625,180.19798316248915L951.6112312500001,172.78172242125208L955.227325,223.34296287861483L960.86843125,210.05898489598468L962.31486875,141.61273393668787L964.33988125,139.44406709015976L965.0631000000001,251.50811841034252L967.23275625,234.39367927539743L969.9809875,276.5756936005964L970.99349375,256.05206423977677L971.427425,323.77298307871587L972.43993125,296.83052234887197L973.4524375000001,302.0366790249261L973.88636875,335.0192453841891L974.8988750000001,363.51618271859246L976.3453125000001,388.13753657551683L976.6346,323.95705382346875L977.06853125,353.95844921013L977.213175,408.36409969310097L977.35781875,398.40168985034L977.5024625,275.85639675963733L978.51496875,255.43059176918814L979.527475,323.23603086412726L980.8292687500001,324.8510383821067L981.9864187499999,240.79306814869716L988.2061,196.65143310269661L990.6650437499999,158.51306042295207L993.1239875,68.59262093437421L995.0043562499999,104.83913220280002L995.1489999999999,50.70278120977622L995.4382875,60.89786793410807L1001.0793937500001,126.67531260172235L1004.984775,126.53813505674954L1005.70799375,240.35739313347602L1006.141925,253.24389538282395L1007.299075,150.44006233970356L1008.1669374999999,90.10198484806097L1009.7580187500001,180.39211448427338L1011.0598124999999,59.01167240769083L1012.07231875,39.59230718246716L1012.94018125,79.78286112115231L1013.8080437499999,142.99194671532862L1013.9526874999999,112.15126418426617L1018.870575,142.47379997070664L1019.01521875,140.188028143552L1020.17236875,223.66645589157767L1023.499175,210.33848285918458L1023.7884624999999,284.27644876588414L1023.9331062499999,348.1588513092727L1025.5241875,317.899912500073L1025.95811875,291.7561893689246L1027.98313125,240.68356983697305L1028.56170625,253.52571205464537L1028.85099375,236.13688018407507L1031.74386875,221.1129294479023L1032.4670875,179.6477932652098L1032.756375,200.79080109664199L1033.0456625,133.60502313405564L1036.8064,75.55651097438111L1041.00106875,82.37149045072678L1042.15821875,59.77518997165022L1043.0260812499998,11.767535122062839L1044.4725187499998,84.22670505211534L1045.05109375,61.37809538724983L1045.62966875,127.09022912123692L1046.20824375,155.38106567624942L1046.642175,122.85546296650169L1047.65468125,180.2066747097105L1048.8118312499998,201.27367466469062L1052.86185625,134.02222589684976L1053.1511437499998,47.43253990382191L1054.16365,29.58793669912442L1055.3208,99.62353201469647L1055.46544375,131.64983937619846L1055.899375,130.83612618989696L1057.9243875,101.64863525029324L1059.9494,133.399528571754L1060.527975,132.34785765485697L1060.6726187499999,188.40810372044945L1060.8172625,179.87526658332973L1062.69763125,257.9562299035456L1064.2887125,268.44929035216416L1064.43335625,192.0619578508268L1065.156575,211.51663929861508L1065.4458625,228.32548406950409L1065.87979375,271.3327729427046L1067.470875,251.52218079135824L1071.2316125,234.40582917259493L1073.8352,219.61730137398354L1076.4387875,320.7777928315663L1076.5834312499999,237.27378399303024L1077.45129375,165.1263203565352L1078.89773125,216.7286954946994L1080.9227437499999,204.34425787628177L1083.5263312499999,222.1285465206081L1083.9602625,265.97861890045846L1084.10490625,189.92729771655314L1088.0102875,238.15673993375495L1088.87815,165.88919428932132L1089.31208125,103.45003485253058L1090.613875,191.92482968813513L1091.4817375,154.42927507277102L1092.20495625,150.51755863173562L1092.3496,204.10672536447257L1092.49424375,136.4699817014613L1094.085325,106.51628641228476L1094.5192562500001,137.6051791757147L1094.8085437500001,135.98153977667903L1097.12284375,191.5476050737036L1097.8460625,125.61890177023696L1098.56928125,125.62539609834622L1099.1478562500001,182.59989693562406L1101.46215625,146.37253317460141L1101.6068,115.07209088507791L1103.4871687500001,173.4818412313603L1106.3800437500001,223.94786553054837L1108.11576875,239.0660635338945L1109.85149375,280.6126335999378L1113.3229437500001,231.05553765256846L1114.914025,273.6915392384721L1115.92653125,282.04459761754055L1116.64975,260.7771973104165L1116.9390375,299.3710531828529L1117.228325,190.29392667892864L1118.0961875,181.50461761945584L1118.6747625,202.39509733871043L1120.9890625,220.44447181614652L1122.58014375,207.554688618012L1122.86943125,196.4179159348239L1124.7498,158.31130158991007L1125.1837312500002,182.356072289183L1126.05159375,260.09964603340285L1128.5105375,355.7545386173045L1129.0891125,352.9470290808518L1131.25876875,350.52134084135656L1132.70520625,262.97220947348916L1133.1391375,244.29865395395606L1133.57306875,199.68025923844027L1134.2962875,189.61440895087378L1134.585575,237.88640404020802L1135.4534375,222.62451805960114L1136.75523125,237.92269131899604L1137.7677374999998,251.14031301511324L1138.3463125,262.5603381605585L1139.06953125,300.91168687737553L1141.528475,277.0783624309139L1144.7106375,256.48637010917105L1144.9999249999998,238.6948887431853L1145.43385625,251.8074915896127L1147.0249375,263.13678044892606L1148.03744375,215.95640053009436L1151.21960625,175.19255228022377L1153.53390625,83.00370189905705L1154.40176875,88.80586340964676L1155.84820625,65.33448820815698L1156.5714249999999,16.570768798404682L1156.8607124999999,31.407809210683126L1157.29464375,44.22701212689169L1158.885725,55.30280344649589L1159.7535874999999,-20.581041093283776L1161.34466875,-0.36945121151156357L1161.63395625,16.771459122115502L1163.514325,-53.87212258954847L1174.07331875,-64.67062388410861L1174.50725,18.184135670783206L1175.3751125,32.80175818841816L1180.8715750000001,102.4002737814463L1182.75194375,162.53339125382263L1182.8965875,242.97284961885154L1183.185875,283.9880967773408L1184.0537375,262.4563805844839L1184.48766875,186.88408381155114L1187.09125625,207.0429561286808L1188.24840625,167.49133631740239L1189.69484375,247.25651415378437L1193.16629375,173.7513992154267L1193.74486875,195.6963166376294L1194.90201875,214.6567252904125L1195.48059375,174.06963287313863L1196.7823875000001,224.45571750904477L1199.53061875,211.02040489667604L1200.8324125000001,227.89673754622882L1201.700275,213.9934462088031L1204.73779375,201.9810024932673L1205.4610125000002,163.1178083764052L1206.0395875,214.9933411438671L1206.328875,174.3604689705234L1208.20924375,224.70699989718517L1208.49853125,154.26861889772508L1208.9324625,178.86319444313511L1209.65568125,200.11290771436947L1210.23425625,218.47265998071595L1211.68069375,148.8821492098956L1212.83784375,174.20928463285045L1217.46644375,167.60748689164424L1218.4789500000002,218.8724233810336L1220.07003125,206.19643877007454L1220.214675,280.69772267289306L1220.64860625,288.09794010488025L1221.0825375,322.9761749572695L1223.686125,353.1109698697339L1224.2647,322.17854293631154L1224.843275,352.42181580362615L1225.1325625,378.552003560986L1226.8682875,372.64403879219265L1229.471875,339.055114485316L1230.3397375,338.51872663081366L1231.3522437499998,395.0241793845717L1232.0754625,358.3915559571315L1233.2326125,412.1943039225103L1234.100475,344.74210081127114L1235.6915562499998,371.91672980759125L1236.8487062499999,366.9111622692596L1237.1379937499999,362.58635191614104L1237.571925,358.8497157710466L1238.00585625,327.13681939504573L1238.87371875,271.2524341795418L1240.60944375,279.9372108466248L1241.9112375,258.9564151403453L1242.9237437499999,240.8290076501198L1243.93625,282.13581731635645L1244.2255375,260.8560111301935L1244.514825,242.47025858534855L1244.94875625,226.5849683866026L1245.23804375,241.3445204015254L1249.4327125,254.09677334241866L1249.57735625,293.59916687450266L1250.300575,327.7292348862233L1250.44521875,357.21761364835L1252.3255875,382.6955728988274L1252.614875,347.7396399534484L1252.7595187499999,289.05327114200156L1256.23096875,238.34824848891157L1261.4381437499999,194.53910891664182L1262.30600625,185.17245507283994L1262.45065,234.04855588958682L1262.7399375,276.27750699525603L1266.500675,227.30998826612338L1266.6453187500001,185.0020520841528L1266.9346062500001,205.4168807162088L1267.07925,223.05529265430505L1267.22389375,238.29488056882025L1267.657825,308.4307763870095L1269.6828375,283.5748557672376L1270.69534375,290.58378309839395L1271.9971375,211.18615958356943L1272.14178125,199.55550684906547L1274.1667937500001,246.47551262424565L1275.90251875,287.01439761400127L1278.3614625,265.0711045073584L1278.9400375,303.0809890010107L1280.0971875,335.92152920352623L1280.82040625,307.3268662007082L1280.96505,339.5899671040649L1281.8329125,282.0119538001343L1282.700775,260.74899305217747L1284.7257875,213.89335221930358L1286.60615625,144.92562730403532L1287.47401875,227.75974156623528L1289.3543875,185.39063893544952L1289.643675,148.7837342624505L1289.7883187500001,231.09314597830598L1290.65618125,245.23958584075703L1291.0901125,257.4621098819147L1291.3794,239.5379279068358L1291.5240437500001,138.59810644044984L1292.53655,51.38610069349247L1295.8633562500002,4.519361985734509L1299.33480625,49.47983647117536L1299.7687375,31.356800933317796L1300.78124375,72.66738372188725L1304.5419812500002,-34.06249497101082L1305.5544875,-40.82377343273119L1305.9884187500002,10.303367469621017L1306.1330625,25.992774462613955L1306.42235,96.51731184235146L1308.4473625,185.93495700734044L1309.6045125,263.19180242989086L1310.61701875,272.9728250149264L1311.19559375,366.8769652573409L1312.93131875,362.55680569784323L1313.0759625,301.8553023451587L1314.08846875,306.3780889417178L1314.66704375,310.2857765611448L1315.6795499999998,256.69313317105144L1316.40276875,324.3268666353371L1319.4402875,268.8246349951536L1320.5974375,249.35514960467404L1322.3331625,261.0179569739391L1322.62245,271.09462254098406L1323.34566875,222.83197609763246L1325.37068125,238.1019350638552L1325.515325,222.81073686403238L1325.8046124999998,266.568031357177L1327.5403374999999,275.8898868081016L1328.4082,255.45952717106118L1328.55284375,237.80769644465838L1329.56535,251.04095744368547L1329.70999375,233.99005220020572L1330.7225,219.2580700698392L1330.86714375,206.52963750920247L1331.44571875,167.04782903017312L1333.0367999999999,218.38887898872258L1333.18144375,234.26309916175697L1334.91716875,247.9784253912587L1335.0618125,202.85958176026972L1338.67790625,249.3302333475261L1341.7154249999999,232.511986581124" style="fill: none;" fill="none"></path></g></g></g></g><g opacity="0.2"><g><g><g><path stroke="rgb(255, 112, 67)" stroke-width="2px" d="M145.222325,544.5555493136249L147.24733750000001,125.666654182805L150.4295,544.5555493136249L151.44200625,125.666654182805L151.58665000000002,125.666654182805L153.6116625,335.11108614338775L153.75630625,125.666654182805L154.33488125,335.11108614338775L154.91345625,-83.77777777777773L156.5045375,753.9999968790346L157.51704375,125.666654182805L158.96348125,-83.77777777777773L159.54205625,125.666654182805L160.12063125,125.666654182805L162.14564375,544.5555493136249L163.15815,125.666654182805L163.4474375,335.11108614338775L165.47245,335.11108614338775L165.90638124999998,335.11108614338775L167.35281874999998,-293.22227215766907L167.78675,335.11108614338775L168.07603749999998,335.11108614338775L168.365325,125.666654182805L169.522475,-293.22227215766907L172.27070625,-83.77777777777773L174.00643125000002,335.11108614338775L174.29571875,335.11108614338775L175.45286875,-83.77777777777773L177.76716875,335.11108614338775L179.936825,-83.77777777777773L180.08146875,125.666654182805L181.9618375,544.5555493136249L183.84220624999998,753.9999968790346L184.27613750000003,125.666654182805L185.4332875,125.666654182805L185.86721875,335.11108614338775L187.31365625,-293.22227215766907L189.194025,335.11108614338775L190.35117499999998,753.9999968790346L194.6904875,544.5555493136249L196.42621250000002,125.666654182805L197.294075,335.11108614338775L197.5833625,544.5555493136249L199.3190875,335.11108614338775L200.4762375,335.11108614338775L201.05481250000003,125.666654182805L201.3441,-502.6666416989433L203.079825,-712.1111360788345L204.67090624999997,125.666654182805L205.6834125,125.666654182805L207.708425,-502.6666416989433L207.85306875,-712.1111360788345L208.14235625,335.11108614338775L209.1548625,544.5555493136249L211.32451875,-83.77777777777773L211.90309374999998,125.666654182805L213.2048875,-293.22227215766907L213.34953124999998,335.11108614338775L214.07274999999998,335.11108614338775L214.21739375,-83.77777777777773L215.08525625,125.666654182805L218.4120625,335.11108614338775L218.70135,335.11108614338775L218.84599375,335.11108614338775L218.99063750000002,125.666654182805L219.42456875,-293.22227215766907L219.71385625000002,335.11108614338775L221.73886875,753.9999968790346L222.17279999999997,753.9999968790346L222.4620875,125.666654182805L222.751375,335.11108614338775L223.32995000000003,753.9999968790346L224.4871,-83.77777777777773L225.06567499999997,125.666654182805L225.9335375,544.5555493136249L226.22282500000003,125.666654182805L226.8014,125.666654182805L229.9835625,753.9999968790346L230.56213749999998,125.666654182805L230.85142499999998,-83.77777777777773L233.45501249999998,-83.77777777777773L234.75680625,335.11108614338775L235.480025,335.11108614338775L235.62466874999998,335.11108614338775L236.78181875,-83.77777777777773L237.64968125000001,125.666654182805L237.794325,335.11108614338775L239.81933750000002,335.11108614338775L241.12113125,-502.6666416989433L242.27828125000002,335.11108614338775L242.422925,-293.22227215766907L244.737225,125.666654182805L245.0265125,544.5555493136249L248.93189375,335.11108614338775L249.51046874999997,335.11108614338775L250.37833125,544.5555493136249L252.2587,335.11108614338775L255.151575,335.11108614338775L256.74265625,125.666654182805L256.88730000000004,-293.22227215766907L257.7551625,-502.6666416989433L258.623025,125.666654182805L260.937325,335.11108614338775L261.08196875,544.5555493136249L269.9052375,-83.77777777777773L270.62845625,125.666654182805L272.7981125,125.666654182805L274.38919375,125.666654182805L274.96776875,125.666654182805L279.1624375,125.666654182805L279.451725,125.666654182805L280.8981625,544.5555493136249L281.91066875,-712.1111360788345L283.93568125,335.11108614338775L289.14285624999997,335.11108614338775L289.57678749999997,544.5555493136249L289.86607499999997,335.11108614338775L291.45715625,335.11108614338775L292.46966249999997,753.9999968790346L293.0482375,335.11108614338775L293.337525,125.666654182805L294.63931875,-293.22227215766907L297.38755000000003,125.666654182805L299.4125625,335.11108614338775L299.55720625000004,-293.22227215766907L299.84649375000004,753.9999968790346L300.42506875,125.666654182805L301.72686250000004,125.666654182805L303.4625875,-83.77777777777773L304.0411625,-293.22227215766907L304.33045,335.11108614338775L304.76438125,125.666654182805L305.05366875,-293.22227215766907L305.34295625,125.666654182805L306.78939375,335.11108614338775L307.36796875,125.666654182805L308.380475,-293.22227215766907L308.6697625,125.666654182805L310.4054875,-83.77777777777773L311.12870625,125.666654182805L311.27335,-83.77777777777773L313.009075,125.666654182805L314.4555125,544.5555493136249L315.90195,-83.77777777777773L317.20374375,125.666654182805L317.3483875,335.11108614338775L320.2412625,-293.22227215766907L328.48595625,-293.22227215766907L329.209175,125.666654182805L330.07703749999996,-293.22227215766907L331.2341875,125.666654182805L332.3913375,125.666654182805L333.5484875,125.666654182805L334.85028125,-83.77777777777773L335.86278749999997,753.9999968790346L336.29671875,335.11108614338775L336.4413625,-293.22227215766907L341.35925,-83.77777777777773L341.937825,335.11108614338775L343.52890625,-83.77777777777773L344.252125,-83.77777777777773L349.60394375,125.666654182805L352.6414625,125.666654182805L352.78610625,544.5555493136249L355.38969375,125.666654182805L355.5343375,-83.77777777777773L355.96826875,-83.77777777777773L357.8486375,335.11108614338775L358.137925,125.666654182805L359.72900625,753.9999968790346L360.1629375,125.666654182805L360.7415125,-83.77777777777773L361.89866249999994,963.4444444444446L362.91116875,125.666654182805L363.0558125,-83.77777777777773L363.48974375000006,-83.77777777777773L363.923675,125.666654182805L365.65940000000006,753.9999968790346L368.55227500000007,963.4444444444446L368.98620625,125.666654182805L371.01121875,125.666654182805L371.44514999999996,335.11108614338775L372.16836874999996,335.11108614338775L372.6023,125.666654182805L373.90409375,335.11108614338775L375.495175,-293.22227215766907L376.21839375,125.666654182805L376.50768124999996,125.666654182805L379.97913124999997,-83.77777777777773L381.42556874999997,753.9999968790346L382.87200624999997,125.666654182805L383.8845125,-293.22227215766907L387.21131875,-83.77777777777773L387.50060625000003,335.11108614338775L388.36846875000003,-293.22227215766907L389.6702625,753.9999968790346L390.8274125,125.666654182805L391.1167,-83.77777777777773L392.12920625000004,-83.77777777777773L393.1417125,335.11108614338775L393.86493125,544.5555493136249L403.84535,-83.77777777777773L405.00250000000005,125.666654182805L407.75073125,-83.77777777777773L411.80075625,-293.22227215766907L412.37933125,125.666654182805L413.68112499999995,335.11108614338775L414.40434374999995,753.9999968790346L414.69363125,125.666654182805L417.73115,-502.6666416989433L419.7561625,-83.77777777777773L420.624025,125.666654182805L420.76866874999996,125.666654182805L422.93832499999996,-921.5555056201088L423.08296874999996,335.11108614338775L424.67405,544.5555493136249L425.25262499999997,335.11108614338775L425.97584374999997,753.9999968790346L426.26513125,335.11108614338775L428.14549999999997,335.11108614338775L428.29014374999997,-293.22227215766907L428.72407499999997,-293.22227215766907L429.01336249999997,125.666654182805L430.60444375000003,544.5555493136249L430.89373125,125.666654182805L432.05088125000003,-83.77777777777773L432.19552500000003,335.11108614338775L444.0563125,125.666654182805L445.35810625,125.666654182805L446.80454375,125.666654182805L448.395625,125.666654182805L448.82955625000005,335.11108614338775L449.69741875,753.9999968790346L450.4206375,125.666654182805L450.56528125,544.5555493136249L451.14385625,125.666654182805L451.2885,753.9999968790346L452.30100624999994,125.666654182805L454.03673125,125.666654182805L458.37604375,-83.77777777777773L461.9921375,544.5555493136249L464.16179375,335.11108614338775L465.02965625,544.5555493136249L466.47609375,125.666654182805L468.067175,335.11108614338775L468.50110625,335.11108614338775L469.224325,-293.22227215766907L471.10469374999997,125.666654182805L474.57614375,125.666654182805L478.04759375000003,-293.22227215766907L479.63867500000003,335.11108614338775L480.07260625,125.666654182805L480.795825,335.11108614338775L481.952975,335.11108614338775L483.3994125,544.5555493136249L484.84585,-293.22227215766907L485.85835625,335.11108614338775L490.19766875,335.11108614338775L490.77624375,335.11108614338775L490.9208875,544.5555493136249L491.4994625,335.11108614338775L496.995925,-83.77777777777773L497.71914375,125.666654182805L499.5995125,335.11108614338775L500.7566625,335.11108614338775L501.19059374999995,125.666654182805L504.08346874999995,544.5555493136249L505.24061875,335.11108614338775L505.9638375,125.666654182805L506.68705625,544.5555493136249L508.71206875,335.11108614338775L509.00135624999996,125.666654182805L510.30315,125.666654182805L510.59243749999996,335.11108614338775L511.7495875,544.5555493136249L515.7996125,335.11108614338775L517.3906937500001,544.5555493136249L517.5353375,125.666654182805L518.981775,544.5555493136249L519.56035,544.5555493136249L520.57285625,125.666654182805L521.5853625,335.11108614338775L523.46573125,335.11108614338775L524.62288125,-83.77777777777773L524.767525,544.5555493136249L525.78003125,335.11108614338775L526.35860625,-293.22227215766907L526.50325,-293.22227215766907L526.93718125,125.666654182805L529.6854125,544.5555493136249L530.8425625,544.5555493136249L530.98720625,335.11108614338775L531.4211375,125.666654182805L532.43364375,544.5555493136249L532.867575,125.666654182805L533.1568625,544.5555493136249L534.16936875,-293.22227215766907L535.4711625,335.11108614338775L536.339025,544.5555493136249L537.06224375,125.666654182805L537.64081875,125.666654182805L539.37654375,-83.77777777777773L540.0997625,544.5555493136249L540.82298125,335.11108614338775L540.967625,125.666654182805L541.11226875,125.666654182805L541.5462,544.5555493136249L542.84799375,125.666654182805L542.9926375,544.5555493136249L543.13728125,125.666654182805L543.8605,335.11108614338775L544.58371875,-83.77777777777773L545.01765,335.11108614338775L545.74086875,125.666654182805L546.4640875,544.5555493136249L547.47659375,125.666654182805L551.381975,-293.22227215766907L554.5641375,335.11108614338775L555.1427125,544.5555493136249L556.010575,-83.77777777777773L557.02308125,335.11108614338775L558.46951875,125.666654182805L558.6141625,-83.77777777777773L566.7142124999999,753.9999968790346L567.14814375,335.11108614338775L569.0285125,125.666654182805L571.6321,125.666654182805L572.06603125,-83.77777777777773L573.0785375,335.11108614338775L573.51246875,-502.6666416989433L574.6696187499999,125.666654182805L576.5499875,-293.22227215766907L577.996425,-83.77777777777773L578.4303562499999,335.11108614338775L578.8642875,544.5555493136249L581.3232312499999,335.11108614338775L583.4928874999999,753.9999968790346L585.37325625,544.5555493136249L590.58043125,125.666654182805L590.725075,125.666654182805L592.4608000000001,335.11108614338775L593.47330625,335.11108614338775L593.61795,544.5555493136249L593.76259375,-83.77777777777773L594.6304562500001,335.11108614338775L595.20903125,125.666654182805L595.78760625,-293.22227215766907L595.93225,125.666654182805L596.0768937500001,-293.22227215766907L596.8001125000001,335.11108614338775L597.0894,335.11108614338775L599.54834375,-83.77777777777773L604.3215875,544.5555493136249L606.0573125,335.11108614338775L606.3466000000001,125.666654182805L607.35910625,335.11108614338775L608.082325,-293.22227215766907L609.81805,125.666654182805L609.96269375,753.9999968790346L613.72343125,963.4444444444446L616.90559375,335.11108614338775L617.339525,125.666654182805L621.6788375,-83.77777777777773L622.8359875,125.666654182805L627.753875,-293.22227215766907L630.068175,335.11108614338775L631.36996875,-83.77777777777773L632.382475,-83.77777777777773L632.6717625,125.666654182805L633.10569375,753.9999968790346L634.26284375,-83.77777777777773L635.41999375,335.11108614338775L637.011075,-83.77777777777773L639.0360875,335.11108614338775L639.6146625,125.666654182805L640.1932375,753.9999968790346L642.07360625,544.5555493136249L645.25576875,125.666654182805L646.268275,-83.77777777777773L648.2932875,335.11108614338775L648.43793125,125.666654182805L648.582575,335.11108614338775L648.72721875,753.9999968790346L649.59508125,335.11108614338775L649.88436875,544.5555493136249L650.896875,544.5555493136249L651.33080625,335.11108614338775L652.9218875,-83.77777777777773L654.6576125,125.666654182805L657.2612,125.666654182805L658.1290625,-83.77777777777773L659.2862124999999,125.666654182805L660.4433625,544.5555493136249L660.8772937499999,125.666654182805L661.8898,-83.77777777777773L663.48088125,125.666654182805L663.6255249999999,335.11108614338775L665.36125,125.666654182805L667.2416187499999,-83.77777777777773L667.53090625,-83.77777777777773L667.67555,335.11108614338775L669.7005625,544.5555493136249L673.8952312499999,-83.77777777777773L674.18451875,125.666654182805L674.6184499999999,125.666654182805L675.1970249999999,-293.22227215766907L675.7756,-83.77777777777773L678.3791875,125.666654182805L679.825625,-293.22227215766907L681.5613500000001,335.11108614338775L682.2845687500001,-502.6666416989433L684.4542250000001,-293.22227215766907L686.33459375,335.11108614338775L686.4792375000001,753.9999968790346L686.768525,125.666654182805L686.91316875,125.666654182805L687.3471000000001,-83.77777777777773L691.6864125000001,544.5555493136249L691.83105625,125.666654182805L692.4096312500001,335.11108614338775L692.8435625,125.666654182805L696.17036875,-293.22227215766907L697.61680625,-83.77777777777773L701.2329,125.666654182805L701.5221875,-83.77777777777773L702.968625,335.11108614338775L704.27041875,335.11108614338775L704.70435,-502.6666416989433L709.0436625,-83.77777777777773L710.34545625,125.666654182805L710.92403125,335.11108614338775L711.79189375,125.666654182805L713.23833125,-83.77777777777773L713.52761875,335.11108614338775L713.96155,-502.6666416989433L716.42049375,125.666654182805L716.99906875,335.11108614338775L718.3008625,335.11108614338775L719.60265625,125.666654182805L720.47051875,-83.77777777777773L726.54555625,753.9999968790346L727.268775,125.666654182805L728.1366374999999,125.666654182805L729.0045,335.11108614338775L730.01700625,544.5555493136249L744.3367374999999,-712.1111360788345L745.7831749999999,335.11108614338775L747.37425625,544.5555493136249L749.39926875,544.5555493136249L750.99035,335.11108614338775L753.16000625,125.666654182805L755.18501875,-83.77777777777773L756.05288125,335.11108614338775L756.34216875,544.5555493136249L763.86364375,-83.77777777777773L766.3225875,125.666654182805L769.2154625000001,335.11108614338775L769.93868125,125.666654182805L770.6619000000001,-83.77777777777773L771.5297625,125.666654182805L777.6048,-83.77777777777773L778.0387312500001,335.11108614338775L780.35303125,544.5555493136249L781.51018125,-83.77777777777773L782.08875625,125.666654182805L782.5226875000001,125.666654182805L784.2584125000001,125.666654182805L784.5477,-83.77777777777773L786.13878125,544.5555493136249L787.29593125,335.11108614338775L788.8870125,335.11108614338775L790.6227375,125.666654182805L793.9495437500001,544.5555493136249L801.76030625,-293.22227215766907L801.90495,335.11108614338775L804.5085375,125.666654182805L804.797825,-83.77777777777773L808.84785,544.5555493136249L810.8728625,125.666654182805L811.3067937499999,-83.77777777777773L811.740725,125.666654182805L817.0925437499999,544.5555493136249L818.3943375,544.5555493136249L818.5389812499999,335.11108614338775L818.9729125,753.9999968790346L819.69613125,125.666654182805L821.2872125,335.11108614338775L822.4443625,544.5555493136249L823.0229374999999,335.11108614338775L823.312225,-83.77777777777773L825.3372375,544.5555493136249L825.48188125,335.11108614338775L826.34974375,544.5555493136249L826.783675,125.666654182805L828.8086874999999,335.11108614338775L829.82119375,125.666654182805L833.0033562499999,544.5555493136249L834.0158625,-83.77777777777773L834.883725,125.666654182805L835.4623,-83.77777777777773L835.60694375,-83.77777777777773L837.4873124999999,335.11108614338775L839.512325,335.11108614338775L839.94625625,544.5555493136249L840.3801874999999,335.11108614338775L840.669475,335.11108614338775L840.9587625,753.9999968790346L843.2730624999999,753.9999968790346L843.56235,335.11108614338775L843.8516375,-83.77777777777773L843.99628125,-83.77777777777773L844.140925,125.666654182805L845.15343125,335.11108614338775L845.298075,544.5555493136249L847.9016625,335.11108614338775L850.7945374999999,-83.77777777777773L852.67490625,753.9999968790346L854.5552749999999,335.11108614338775L854.8445624999999,-83.77777777777773L857.5927937499999,125.666654182805L858.17136875,544.5555493136249L859.183875,125.666654182805L859.7624500000001,-83.77777777777773L860.48566875,544.5555493136249L864.969625,125.666654182805L866.4160625,-83.77777777777773L866.56070625,125.666654182805L871.18930625,544.5555493136249L876.39648125,753.9999968790346L876.68576875,125.666654182805L877.4089875000001,335.11108614338775L879.28935625,-293.22227215766907L879.434,544.5555493136249L880.59115,125.666654182805L880.8804375,-83.77777777777773L887.5340500000001,-293.22227215766907L888.112625,125.666654182805L889.12513125,753.9999968790346L889.84835,-293.22227215766907L890.1376374999999,125.666654182805L890.2822812500001,-83.77777777777773L896.79125,-83.77777777777773L897.5144687500001,125.666654182805L897.80375625,-293.22227215766907L898.526975,125.666654182805L899.3948375,335.11108614338775L900.4073437500001,335.11108614338775L902.2877125,-293.22227215766907L904.45736875,544.5555493136249L904.6020124999999,125.666654182805L905.1805875,753.9999968790346L909.2306125000001,963.4444444444446L910.5324062499999,335.11108614338775L910.82169375,125.666654182805L913.8592125,335.11108614338775L914.00385625,544.5555493136249L914.7270749999999,-83.77777777777773L915.30565,125.666654182805L915.45029375,125.666654182805L916.1735124999999,125.666654182805L920.2235375,335.11108614338775L921.0914,335.11108614338775L921.3806875,125.666654182805L924.70749375,335.11108614338775L926.0092875,125.666654182805L926.15393125,544.5555493136249L929.1914499999999,753.9999968790346L929.770025,335.11108614338775L932.2289687499999,335.11108614338775L932.51825625,335.11108614338775L933.241475,335.11108614338775L933.5307624999999,125.666654182805L933.96469375,335.11108614338775L934.25398125,335.11108614338775L939.6057999999999,335.11108614338775L940.7629499999999,335.11108614338775L941.48616875,125.666654182805L941.6308125,335.11108614338775L942.6433187499999,544.5555493136249L946.6933437499999,544.5555493136249L947.70585,125.666654182805L949.87550625,-293.22227215766907L951.6112312500001,125.666654182805L955.227325,544.5555493136249L960.86843125,125.666654182805L962.31486875,-293.22227215766907L964.33988125,125.666654182805L965.0631000000001,963.4444444444446L967.23275625,125.666654182805L969.9809875,544.5555493136249L970.99349375,125.666654182805L971.427425,753.9999968790346L972.43993125,125.666654182805L973.4524375000001,335.11108614338775L973.88636875,544.5555493136249L977.213175,753.9999968790346L977.35781875,335.11108614338775L977.5024625,-502.6666416989433L978.51496875,125.666654182805L979.527475,753.9999968790346L980.8292687500001,335.11108614338775L981.9864187499999,-293.22227215766907L993.1239875,-502.6666416989433L995.0043562499999,335.11108614338775L995.1489999999999,-293.22227215766907L995.4382875,125.666654182805L1001.0793937500001,544.5555493136249L1004.984775,125.666654182805L1005.70799375,963.4444444444446L1006.141925,335.11108614338775L1007.299075,-502.6666416989433L1012.07231875,-83.77777777777773L1012.94018125,335.11108614338775L1013.8080437499999,544.5555493136249L1013.9526874999999,-83.77777777777773L1018.870575,335.11108614338775L1019.01521875,125.666654182805L1020.17236875,753.9999968790346L1023.499175,125.666654182805L1023.7884624999999,753.9999968790346L1023.9331062499999,753.9999968790346L1025.5241875,125.666654182805L1025.95811875,125.666654182805L1027.98313125,-83.77777777777773L1028.56170625,335.11108614338775L1028.85099375,125.666654182805L1031.74386875,125.666654182805L1032.4670875,-83.77777777777773L1032.756375,335.11108614338775L1033.0456625,-293.22227215766907L1036.8064,-293.22227215766907L1041.00106875,125.666654182805L1042.15821875,-83.77777777777773L1045.62966875,544.5555493136249L1046.20824375,335.11108614338775L1046.642175,-83.77777777777773L1047.65468125,544.5555493136249L1048.8118312499998,335.11108614338775L1052.86185625,-293.22227215766907L1055.3208,544.5555493136249L1055.46544375,335.11108614338775L1055.899375,125.666654182805L1057.9243875,-83.77777777777773L1059.9494,335.11108614338775L1060.527975,125.666654182805L1060.6726187499999,544.5555493136249L1060.8172625,125.666654182805L1062.69763125,753.9999968790346L1064.2887125,335.11108614338775L1064.43335625,-293.22227215766907L1065.156575,335.11108614338775L1065.4458625,335.11108614338775L1065.87979375,544.5555493136249L1067.470875,125.666654182805L1071.2316125,125.666654182805L1073.8352,125.666654182805L1076.4387875,963.4444444444446L1078.89773125,544.5555493136249L1080.9227437499999,125.666654182805L1083.5263312499999,335.11108614338775L1083.9602625,544.5555493136249L1091.4817375,-83.77777777777773L1092.20495625,125.666654182805L1092.3496,544.5555493136249L1094.085325,-83.77777777777773L1094.5192562500001,335.11108614338775L1094.8085437500001,125.666654182805L1097.12284375,544.5555493136249L1097.8460625,-293.22227215766907L1098.56928125,125.666654182805L1099.1478562500001,544.5555493136249L1106.3800437500001,544.5555493136249L1108.11576875,335.11108614338775L1109.85149375,544.5555493136249L1114.914025,544.5555493136249L1115.92653125,335.11108614338775L1116.64975,125.666654182805L1116.9390375,544.5555493136249L1117.228325,-502.6666416989433L1118.0961875,125.666654182805L1118.6747625,335.11108614338775L1120.9890625,335.11108614338775L1122.58014375,125.666654182805L1122.86943125,125.666654182805L1124.7498,-83.77777777777773L1125.1837312500002,335.11108614338775L1126.05159375,753.9999968790346L1128.5105375,963.4444444444446L1129.0891125,335.11108614338775L1131.25876875,335.11108614338775L1132.70520625,-293.22227215766907L1133.1391375,125.666654182805L1133.57306875,-83.77777777777773L1134.2962875,125.666654182805L1134.585575,544.5555493136249L1135.4534375,125.666654182805L1136.75523125,335.11108614338775L1137.7677374999998,335.11108614338775L1138.3463125,335.11108614338775L1139.06953125,544.5555493136249L1141.528475,125.666654182805L1144.7106375,125.666654182805L1144.9999249999998,125.666654182805L1145.43385625,335.11108614338775L1147.0249375,335.11108614338775L1148.03744375,-83.77777777777773L1153.53390625,-502.6666416989433L1154.40176875,125.666654182805L1155.84820625,-83.77777777777773L1156.5714249999999,-293.22227215766907L1156.8607124999999,125.666654182805L1157.29464375,125.666654182805L1158.885725,125.666654182805L1159.7535874999999,-502.6666416989433L1161.34466875,544.5555493136249L1161.63395625,125.666654182805L1163.514325,-502.6666416989433L1164.52683125,-293.22227215766907L1164.81611875,335.11108614338775L1164.9607625,-83.77777777777773L1168.7215,-83.77777777777773L1169.73400625,125.666654182805L1173.0608125,-83.77777777777773L1174.50725,544.5555493136249L1175.3751125,125.666654182805L1180.8715750000001,544.5555493136249L1183.185875,544.5555493136249L1184.0537375,125.666654182805L1184.48766875,-293.22227215766907L1187.09125625,335.11108614338775L1188.24840625,-83.77777777777773L1193.16629375,-293.22227215766907L1193.74486875,335.11108614338775L1194.90201875,335.11108614338775L1195.48059375,-83.77777777777773L1196.7823875000001,544.5555493136249L1199.53061875,125.666654182805L1200.8324125000001,335.11108614338775L1201.700275,125.666654182805L1204.73779375,125.666654182805L1205.4610125000002,-83.77777777777773L1208.49853125,-293.22227215766907L1208.9324625,335.11108614338775L1209.65568125,335.11108614338775L1210.23425625,335.11108614338775L1211.68069375,-293.22227215766907L1212.83784375,335.11108614338775L1217.46644375,125.666654182805L1218.4789500000002,544.5555493136249L1220.07003125,125.666654182805L1220.214675,753.9999968790346L1220.64860625,335.11108614338775L1221.0825375,544.5555493136249L1223.686125,544.5555493136249L1224.2647,125.666654182805L1224.843275,544.5555493136249L1225.1325625,544.5555493136249L1226.8682875,335.11108614338775L1229.471875,125.666654182805L1230.3397375,335.11108614338775L1231.3522437499998,753.9999968790346L1232.0754625,125.666654182805L1233.2326125,753.9999968790346L1235.6915562499998,544.5555493136249L1236.8487062499999,335.11108614338775L1237.1379937499999,335.11108614338775L1237.571925,335.11108614338775L1238.00585625,125.666654182805L1238.87371875,-83.77777777777773L1240.60944375,335.11108614338775L1241.9112375,125.666654182805L1242.9237437499999,125.666654182805L1243.93625,544.5555493136249L1244.2255375,125.666654182805L1244.514825,125.666654182805L1244.94875625,125.666654182805L1245.23804375,335.11108614338775L1249.4327125,335.11108614338775L1249.57735625,544.5555493136249L1252.3255875,544.5555493136249L1252.614875,125.666654182805L1252.7595187499999,-83.77777777777773L1261.4381437499999,-83.77777777777773L1262.30600625,125.666654182805L1262.45065,544.5555493136249L1266.6453187500001,-83.77777777777773L1266.9346062500001,335.11108614338775L1267.07925,335.11108614338775L1267.22389375,335.11108614338775L1267.657825,753.9999968790346L1269.6828375,125.666654182805L1270.69534375,335.11108614338775L1271.9971375,-293.22227215766907L1272.14178125,125.666654182805L1274.1667937500001,544.5555493136249L1275.90251875,544.5555493136249L1278.3614625,125.666654182805L1278.9400375,544.5555493136249L1280.0971875,544.5555493136249L1280.82040625,125.666654182805L1280.96505,544.5555493136249L1281.8329125,-83.77777777777773L1282.700775,125.666654182805L1284.7257875,-83.77777777777773L1289.7883187500001,753.9999968790346L1290.65618125,335.11108614338775L1291.0901125,335.11108614338775L1291.3794,125.666654182805L1291.5240437500001,-502.6666416989433L1295.8633562500002,-293.22227215766907L1299.33480625,335.11108614338775L1299.7687375,-83.77777777777773L1300.78124375,335.11108614338775L1304.5419812500002,-712.1111360788345L1305.5544875,-83.77777777777773L1305.9884187500002,335.11108614338775L1306.1330625,125.666654182805L1306.42235,544.5555493136249L1309.6045125,753.9999968790346L1310.61701875,335.11108614338775L1311.19559375,963.4444444444446L1312.93131875,335.11108614338775L1313.0759625,-83.77777777777773L1314.08846875,335.11108614338775L1314.66704375,335.11108614338775L1315.6795499999998,-83.77777777777773L1319.4402875,-83.77777777777773L1320.5974375,125.666654182805L1322.3331625,335.11108614338775L1322.62245,335.11108614338775L1323.34566875,-83.77777777777773L1325.37068125,335.11108614338775L1325.515325,125.666654182805L1325.8046124999998,544.5555493136249L1327.5403374999999,335.11108614338775L1328.4082,125.666654182805L1328.55284375,125.666654182805L1329.56535,335.11108614338775L1329.70999375,125.666654182805L1330.7225,125.666654182805L1330.86714375,125.666654182805L1331.44571875,-83.77777777777773L1333.0367999999999,544.5555493136249L1333.18144375,335.11108614338775L1334.91716875,335.11108614338775L1335.0618125,-83.77777777777773L1338.67790625,544.5555493136249L1341.7154249999999,125.666654182805" style="fill: none;" fill="none"></path></g></g></g></g></g><g><g><span fill="rgb(0, 0, 0)" stroke="none" stroke-width="1px">Alt + Scroll to Zoom</span></g></g></g><g transform="translate(51, 377)" clip-path="url(#clip_1)"><clipPath id="clip_1"><rect width="1446" height="23"></rect></clipPath><g><g><line x1="0" y1="0" x2="0" y2="5" style="visibility: inherit;" fill="rgb(0, 0, 0)" stroke="rgb(204, 204, 204)" stroke-width="1px"></line><line x1="144.64375" y1="0" x2="144.64375" y2="5" style="visibility: inherit;" fill="rgb(0, 0, 0)" stroke="rgb(204, 204, 204)" stroke-width="1px"></line><line x1="289.2875" y1="0" x2="289.2875" y2="5" style="visibility: inherit;" fill="rgb(0, 0, 0)" stroke="rgb(204, 204, 204)" stroke-width="1px"></line><line x1="433.93125" y1="0" x2="433.93125" y2="5" style="visibility: inherit;" fill="rgb(0, 0, 0)" stroke="rgb(204, 204, 204)" stroke-width="1px"></line><line x1="578.575" y1="0" x2="578.575" y2="5" style="visibility: inherit;" fill="rgb(0, 0, 0)" stroke="rgb(204, 204, 204)" stroke-width="1px"></line><line x1="723.21875" y1="0" x2="723.21875" y2="5" style="visibility: inherit;" fill="rgb(0, 0, 0)" stroke="rgb(204, 204, 204)" stroke-width="1px"></line><line x1="867.8625" y1="0" x2="867.8625" y2="5" style="visibility: inherit;" fill="rgb(0, 0, 0)" stroke="rgb(204, 204, 204)" stroke-width="1px"></line><line x1="1012.5062499999999" y1="0" x2="1012.5062499999999" y2="5" style="visibility: inherit;" fill="rgb(0, 0, 0)" stroke="rgb(204, 204, 204)" stroke-width="1px"></line><line x1="1157.15" y1="0" x2="1157.15" y2="5" style="visibility: inherit;" fill="rgb(0, 0, 0)" stroke="rgb(204, 204, 204)" stroke-width="1px"></line><line x1="1301.79375" y1="0" x2="1301.79375" y2="5" style="visibility: inherit;" fill="rgb(0, 0, 0)" stroke="rgb(204, 204, 204)" stroke-width="1px"></line><line x1="1446.4375" y1="0" x2="1446.4375" y2="5" style="visibility: inherit;" fill="rgb(0, 0, 0)" stroke="rgb(204, 204, 204)" stroke-width="1px"></line></g><g transform="translate(0, 8)"><text x="0" y="0" dx="0em" dy="0.95em" style="text-anchor: middle; visibility: hidden; font-family: Roboto, sans-serif; font-size: 12px; font-weight: 200;" fill="rgb(33, 33, 33)" stroke="none" stroke-width="1px">-10k</text><text x="144.64375" y="0" dx="0em" dy="0.95em" style="text-anchor: middle; visibility: inherit; font-family: Roboto, sans-serif; font-size: 12px; font-weight: 200;" fill="rgb(33, 33, 33)" stroke="none" stroke-width="1px">0</text><text x="289.2875" y="0" dx="0em" dy="0.95em" style="text-anchor: middle; visibility: inherit; font-family: Roboto, sans-serif; font-size: 12px; font-weight: 200;" fill="rgb(33, 33, 33)" stroke="none" stroke-width="1px">10k</text><text x="433.93125" y="0" dx="0em" dy="0.95em" style="text-anchor: middle; visibility: inherit; font-family: Roboto, sans-serif; font-size: 12px; font-weight: 200;" fill="rgb(33, 33, 33)" stroke="none" stroke-width="1px">20k</text><text x="578.575" y="0" dx="0em" dy="0.95em" style="text-anchor: middle; visibility: inherit; font-family: Roboto, sans-serif; font-size: 12px; font-weight: 200;" fill="rgb(33, 33, 33)" stroke="none" stroke-width="1px">30k</text><text x="723.21875" y="0" dx="0em" dy="0.95em" style="text-anchor: middle; visibility: inherit; font-family: Roboto, sans-serif; font-size: 12px; font-weight: 200;" fill="rgb(33, 33, 33)" stroke="none" stroke-width="1px">40k</text><text x="867.8625" y="0" dx="0em" dy="0.95em" style="text-anchor: middle; visibility: inherit; font-family: Roboto, sans-serif; font-size: 12px; font-weight: 200;" fill="rgb(33, 33, 33)" stroke="none" stroke-width="1px">50k</text><text x="1012.5062499999999" y="0" dx="0em" dy="0.95em" style="text-anchor: middle; visibility: inherit; font-family: Roboto, sans-serif; font-size: 12px; font-weight: 200;" fill="rgb(33, 33, 33)" stroke="none" stroke-width="1px">60k</text><text x="1157.15" y="0" dx="0em" dy="0.95em" style="text-anchor: middle; visibility: inherit; font-family: Roboto, sans-serif; font-size: 12px; font-weight: 200;" fill="rgb(33, 33, 33)" stroke="none" stroke-width="1px">70k</text><text x="1301.79375" y="0" dx="0em" dy="0.95em" style="text-anchor: middle; visibility: inherit; font-family: Roboto, sans-serif; font-size: 12px; font-weight: 200;" fill="rgb(33, 33, 33)" stroke="none" stroke-width="1px">80k</text><text x="1446.4375" y="0" dx="0em" dy="0.95em" style="text-anchor: middle; visibility: hidden; font-family: Roboto, sans-serif; font-size: 12px; font-weight: 200;" fill="rgb(33, 33, 33)" stroke="none" stroke-width="1px">90k</text></g><line x1="0" y1="0" x2="1446.4375" y2="0" fill="rgb(0, 0, 0)" stroke="rgb(204, 204, 204)" stroke-width="1px"></line></g></g></g></g></svg>